<svg width="50" height="50" viewBox="0 0 50 50" fill="none" xmlns="http://www.w3.org/2000/svg">
<path fill-rule="evenodd" clip-rule="evenodd" d="M25 0C11.1929 0 0 11.1929 0 25C0 38.8071 11.1929 50 25 50C38.8071 50 50 38.8071 50 25C50 18.3696 47.3661 12.0107 42.6777 7.32233C37.9893 2.63392 31.6304 0 25 0ZM14.2857 43.5357V39.9643C14.1127 36.8232 16.5035 34.1296 19.6429 33.9286H30.3572C33.5039 34.1295 35.8975 36.8343 35.7143 39.9821V43.5536C29.0943 47.4186 20.9057 47.4186 14.2857 43.5536V43.5357ZM39.2857 40.9287V39.8395C39.3967 34.7715 35.4226 30.5511 30.3572 30.3573H19.6429C14.5774 30.5511 10.6034 34.7715 10.7143 39.8395V40.9466C4.09208 35.0235 1.8118 25.6283 4.98203 17.3285C8.15226 9.02872 16.1154 3.54612 25 3.54612C33.8846 3.54612 41.8478 9.02872 45.018 17.3285C48.1882 25.6283 45.9079 35.0235 39.2857 40.9466V40.9287ZM25 8.92857C20.0689 8.92857 16.0714 12.926 16.0714 17.8571C16.0714 22.7883 20.0689 26.7857 25 26.7857C29.9311 26.7857 33.9286 22.7883 33.9286 17.8571C33.9286 15.4891 32.9879 13.2181 31.3135 11.5437C29.639 9.86926 27.368 8.92857 25 8.92857ZM25 23.2143C22.0413 23.2143 19.6429 20.8158 19.6429 17.8571C19.6429 14.8985 22.0413 12.5 25 12.5C27.9587 12.5 30.3571 14.8985 30.3571 17.8571C30.3571 19.2779 29.7927 20.6406 28.7881 21.6452C27.7834 22.6499 26.4208 23.2143 25 23.2143Z" fill="#EE3264"/>
<mask id="mask0" mask-type="alpha" maskUnits="userSpaceOnUse" x="0" y="0" width="50" height="50">
<path fill-rule="evenodd" clip-rule="evenodd" d="M25 0C11.1929 0 0 11.1929 0 25C0 38.8071 11.1929 50 25 50C38.8071 50 50 38.8071 50 25C50 18.3696 47.3661 12.0107 42.6777 7.32233C37.9893 2.63392 31.6304 0 25 0ZM14.2857 43.5357V39.9643C14.1127 36.8232 16.5035 34.1296 19.6429 33.9286H30.3572C33.5039 34.1295 35.8975 36.8343 35.7143 39.9821V43.5536C29.0943 47.4186 20.9057 47.4186 14.2857 43.5536V43.5357ZM39.2857 40.9287V39.8395C39.3967 34.7715 35.4226 30.5511 30.3572 30.3573H19.6429C14.5774 30.5511 10.6034 34.7715 10.7143 39.8395V40.9466C4.09208 35.0235 1.8118 25.6283 4.98203 17.3285C8.15226 9.02872 16.1154 3.54612 25 3.54612C33.8846 3.54612 41.8478 9.02872 45.018 17.3285C48.1882 25.6283 45.9079 35.0235 39.2857 40.9466V40.9287ZM25 8.92857C20.0689 8.92857 16.0714 12.926 16.0714 17.8571C16.0714 22.7883 20.0689 26.7857 25 26.7857C29.9311 26.7857 33.9286 22.7883 33.9286 17.8571C33.9286 15.4891 32.9879 13.2181 31.3135 11.5437C29.639 9.86926 27.368 8.92857 25 8.92857ZM25 23.2143C22.0413 23.2143 19.6429 20.8158 19.6429 17.8571C19.6429 14.8985 22.0413 12.5 25 12.5C27.9587 12.5 30.3571 14.8985 30.3571 17.8571C30.3571 19.2779 29.7927 20.6406 28.7881 21.6452C27.7834 22.6499 26.4208 23.2143 25 23.2143Z" fill="white"/>
</mask>
<g mask="url(#mask0)">
</g>
</svg>
