<svg width="20" height="20" viewBox="0 0 20 20" fill="none" xmlns="http://www.w3.org/2000/svg">
<path fill-rule="evenodd" clip-rule="evenodd" d="M12.5 1.25H7.5V2.5H12.5V1.25ZM2.5 5V3.75H17.5V5H16.25V17.5C16.25 18.1904 15.6904 18.75 15 18.75H5C4.30964 18.75 3.75 18.1904 3.75 17.5V5H2.5ZM7.5 7.5H8.75V15H7.5V7.5ZM11.25 7.5H12.5V15H11.25V7.5ZM5 17.5V5H15V17.5H5Z" fill="#EE3264"/>
<mask id="mask0" mask-type="alpha" maskUnits="userSpaceOnUse" x="2" y="1" width="16" height="18">
<path fill-rule="evenodd" clip-rule="evenodd" d="M12.5 1.25H7.5V2.5H12.5V1.25ZM2.5 5V3.75H17.5V5H16.25V17.5C16.25 18.1904 15.6904 18.75 15 18.75H5C4.30964 18.75 3.75 18.1904 3.75 17.5V5H2.5ZM7.5 7.5H8.75V15H7.5V7.5ZM11.25 7.5H12.5V15H11.25V7.5ZM5 17.5V5H15V17.5H5Z" fill="white"/>
</mask>
<g mask="url(#mask0)">
</g>
</svg>
