<svg width="160" height="84" viewBox="0 0 160 84" fill="none" xmlns="http://www.w3.org/2000/svg">
<path d="M99.3299 9.00648V33.1598C99.3299 33.4114 99.2353 33.6473 99.0617 33.836C98.8724 34.0247 98.6516 34.1347 98.3992 34.1347C98.1468 34.1347 97.9102 34.0404 97.7209 33.8517C97.5316 33.663 97.4369 33.4271 97.4369 33.1755V15.2492L91.7738 33.4114C91.758 33.6315 91.6318 33.8202 91.411 33.9618C91.0481 34.1819 90.5749 34.1976 90.2594 33.946C90.1174 33.836 90.007 33.6944 89.9597 33.5529L89.9439 33.49L84.2176 15.3121V33.1755C84.2176 33.4271 84.123 33.663 83.9337 33.8517C83.5551 34.2134 82.9714 34.2291 82.5928 33.8517C82.4193 33.6787 82.3089 33.4743 82.2773 33.2227V33.1755V9.00648C82.2773 8.73916 82.3878 8.50328 82.6086 8.31459C82.8137 8.15734 83.0503 8.06299 83.3185 8.06299C83.5551 8.06299 83.9652 8.14161 84.1703 8.72343L90.8115 29.9362L97.4212 8.75488C97.5789 8.31459 97.926 8.07871 98.3834 8.07871C98.6201 8.07871 98.8409 8.15734 99.0302 8.33031C99.2195 8.48756 99.3299 8.73916 99.3299 9.00648Z" fill="white"/>
<path d="M117.471 33.1911C117.471 33.4427 117.376 33.6629 117.171 33.8516C116.982 34.0246 116.745 34.1189 116.493 34.1189H104.567C104.315 34.1189 104.078 34.0246 103.889 33.8516C103.699 33.6629 103.589 33.4427 103.589 33.1911V13.6609C103.589 13.4093 103.605 13.1263 103.636 12.8118C103.668 12.4658 103.81 11.9784 104.062 11.3022C104.315 10.626 104.678 10.0285 105.135 9.54102C106.113 8.56608 107.407 8.07861 108.984 8.07861H116.24C116.493 8.07861 116.729 8.17296 116.903 8.36166C117.092 8.55036 117.187 8.78623 117.187 9.05355C117.187 9.30515 117.092 9.5253 116.903 9.71399C116.729 9.88697 116.493 9.99704 116.24 9.99704H108.984C107.943 9.99704 107.138 10.2801 106.539 10.8776C105.845 11.5695 105.514 12.4973 105.514 13.7081V18.7086H111.682C111.918 18.7086 112.155 18.8029 112.328 18.9759C112.502 19.1489 112.596 19.3848 112.596 19.6206C112.596 19.8722 112.518 20.0924 112.344 20.2811C112.171 20.4855 111.934 20.5798 111.682 20.5798H105.514V32.2319H116.493C116.761 32.2319 116.998 32.3263 117.187 32.4993C117.376 32.7037 117.471 32.9395 117.471 33.1911Z" fill="white"/>
<path d="M135.139 24.2752V28.4423C135.139 28.741 135.123 29.0713 135.076 29.4172C135.028 29.7789 134.886 30.2663 134.634 30.9268C134.382 31.5872 134.019 32.1533 133.577 32.6093C132.646 33.5686 131.353 34.0717 129.744 34.0717H126.589C124.98 34.0717 123.686 33.5843 122.755 32.6093C121.714 31.54 121.194 30.1405 121.194 28.4423V13.5509C121.194 13.3622 121.194 13.1577 121.225 12.9219C121.257 12.686 121.304 12.3715 121.383 11.9627C121.478 11.5381 121.635 11.0978 121.872 10.6575C122.109 10.2172 122.393 9.80835 122.74 9.46241C123.355 8.84914 124.081 8.42457 124.917 8.20442C125.532 8.07862 126.084 8 126.573 8H129.302C130.864 8 132.157 8.48747 133.12 9.44668C134.161 10.516 134.681 11.9155 134.681 13.6295C134.681 13.8811 134.587 14.117 134.397 14.3057C134.224 14.4943 133.971 14.6044 133.703 14.6044C133.419 14.5887 133.198 14.4629 133.025 14.2585C132.867 14.0698 132.788 13.8496 132.788 13.598C132.788 13.4408 132.773 13.2364 132.757 12.9848C132.741 12.8432 132.678 12.5287 132.441 11.9312C132.268 11.4752 132.031 11.0978 131.747 10.8147C131.179 10.2172 130.391 9.93415 129.318 9.93415H126.589C126.21 9.93415 125.8 9.98133 125.39 10.0914C124.869 10.2172 124.475 10.4373 124.175 10.7833C123.465 11.5066 123.118 12.4187 123.118 13.6295V28.4737C123.118 28.6467 123.134 28.8511 123.166 29.087C123.181 29.2285 123.245 29.543 123.465 30.1405C123.623 30.5966 123.86 30.974 124.144 31.257C124.712 31.8545 125.516 32.1376 126.589 32.1376H129.744C130.848 32.1376 131.652 31.8545 132.22 31.257C132.899 30.5808 133.23 29.6845 133.23 28.5209V25.2187H128.987C128.734 25.2187 128.498 25.1243 128.308 24.9356C128.119 24.7627 128.009 24.5268 128.009 24.2752C128.009 24.0236 128.103 23.7877 128.292 23.599C128.482 23.4103 128.718 23.316 128.987 23.316H134.161C134.382 23.316 134.602 23.3789 134.807 23.5204C135.06 23.7405 135.139 23.9764 135.139 24.2752Z" fill="white"/>
<path d="M152.696 11.4438C152.444 10.689 152.049 10.0443 151.529 9.50967C150.567 8.55046 149.273 8.06299 147.696 8.06299H144.62C143.042 8.06299 141.749 8.55046 140.77 9.5254C140.313 10.0129 139.95 10.6104 139.698 11.2866C139.445 11.9627 139.303 12.4502 139.272 12.7962C139.24 13.1107 139.225 13.3937 139.225 13.6453V33.1755C139.225 33.4271 139.319 33.6473 139.508 33.836C139.887 34.2134 140.471 34.1976 140.849 33.836C141.054 33.6473 141.149 33.4271 141.149 33.1755V23.489H151.166V33.1912C151.166 33.4428 151.261 33.663 151.466 33.8517C151.655 34.0247 151.876 34.119 152.144 34.119C152.381 34.119 152.617 34.0247 152.791 33.836C152.98 33.6473 153.075 33.4271 153.075 33.1755V13.7396C153.091 12.9691 152.964 12.1986 152.696 11.4438ZM144.62 9.98142H147.696C148.768 9.98142 149.573 10.2645 150.141 10.862C150.44 11.1608 150.661 11.5224 150.819 11.9785C151.04 12.576 151.103 12.8748 151.119 13.032C151.15 13.2679 151.166 13.4723 151.166 13.6453V21.5549H141.133V13.6925C141.133 12.4974 141.465 11.5696 142.127 10.862C142.727 10.2802 143.547 9.98142 144.62 9.98142Z" fill="white"/>
<path d="M99.33 46.8717V71.025C99.33 71.2766 99.2353 71.5125 99.0618 71.7012C98.8725 71.8899 98.6517 72 98.3993 72C98.1469 72 97.9103 71.9056 97.721 71.7169C97.5317 71.5282 97.437 71.2923 97.437 71.0407V53.1302L91.7739 71.2766C91.7581 71.4968 91.6319 71.7012 91.411 71.827C91.0482 72.0471 90.575 72.0629 90.2437 71.8113C90.1017 71.7012 90.0071 71.5597 89.9598 71.4181L89.944 71.3552L84.265 53.1774V71.025C84.265 71.2766 84.1704 71.5125 83.9653 71.7012C83.6025 72.0786 83.0031 72.0943 82.6245 71.7012C82.4509 71.5282 82.3405 71.3238 82.309 71.0722V71.025V46.8717C82.309 46.6044 82.4194 46.3685 82.6402 46.1798C82.8453 46.0226 83.0819 45.9282 83.3501 45.9282C83.5867 45.9282 83.9969 46.0226 84.2019 46.6044L90.8589 67.8014L97.4686 46.6201C97.6263 46.1955 97.9734 45.9439 98.4308 45.9439C98.6674 45.9439 98.8883 46.0226 99.0776 46.1955C99.2196 46.3685 99.33 46.6044 99.33 46.8717Z" fill="white"/>
<path d="M117.077 49.3248C116.809 48.57 116.414 47.9253 115.909 47.3906C114.947 46.4314 113.654 45.9282 112.076 45.9282H109C107.423 45.9282 106.129 46.4157 105.151 47.3906C104.694 47.8624 104.331 48.4599 104.078 49.1518C103.842 49.828 103.7 50.3154 103.652 50.6614C103.621 50.9759 103.605 51.2589 103.605 51.5105V71.0408C103.605 71.2766 103.7 71.5125 103.889 71.6855C104.268 72.0629 104.851 72.0471 105.23 71.6855C105.419 71.5125 105.53 71.2766 105.53 71.025V61.3228H115.562V71.025C115.562 71.2609 115.657 71.4968 115.862 71.6855C116.051 71.8584 116.288 71.9528 116.54 71.9528C116.793 71.9528 117.014 71.8584 117.203 71.6697C117.392 71.4968 117.487 71.2609 117.487 71.025V51.6049C117.471 50.8344 117.345 50.0638 117.077 49.3248ZM109 47.8466H112.076C113.149 47.8466 113.953 48.1297 114.521 48.743C114.805 49.026 115.042 49.4034 115.2 49.8594C115.42 50.457 115.484 50.7557 115.499 50.913C115.515 51.1489 115.531 51.3533 115.531 51.5263V59.4358H105.498V51.5577C105.498 50.3626 105.814 49.4349 106.492 48.7272C107.123 48.1454 107.927 47.8466 109 47.8466Z" fill="white"/>
<path d="M135.691 62.1409V66.308C135.691 66.6068 135.675 66.937 135.628 67.2829C135.581 67.6446 135.439 68.1478 135.186 68.7925C134.934 69.4529 134.587 70.019 134.129 70.4751C133.199 71.4343 131.905 71.9217 130.296 71.9217H127.141C125.532 71.9217 124.238 71.4343 123.292 70.4593C122.267 69.39 121.73 67.9905 121.73 66.2923V51.4166C121.73 51.2279 121.746 51.0077 121.762 50.7719C121.778 50.536 121.841 50.2215 121.92 49.8126C121.998 49.4038 122.172 48.9635 122.409 48.5075C122.645 48.0672 122.929 47.6741 123.276 47.3124C123.891 46.6991 124.633 46.2746 125.453 46.0701C126.068 45.9286 126.62 45.8657 127.109 45.8657H129.87C131.432 45.8657 132.709 46.3532 133.688 47.3281C134.729 48.3817 135.249 49.7969 135.249 51.5109C135.249 51.7625 135.155 51.9984 134.981 52.1871C134.808 52.3758 134.555 52.4859 134.287 52.4859C134.003 52.4701 133.766 52.3443 133.609 52.1399C133.451 51.9512 133.372 51.7311 133.372 51.4795C133.372 51.3222 133.356 51.1178 133.325 50.8819C133.309 50.7247 133.246 50.4259 133.025 49.8284C132.851 49.3724 132.615 48.995 132.331 48.7119C131.763 48.1144 130.974 47.8156 129.902 47.8156H127.173C126.794 47.8156 126.384 47.8628 125.958 47.9728C125.437 48.0986 125.043 48.3188 124.743 48.6805C124.033 49.3881 123.686 50.3158 123.686 51.5267V66.3709C123.686 66.5439 123.702 66.7483 123.718 66.9841C123.734 67.1414 123.797 67.4402 124.018 68.0377C124.175 68.4937 124.412 68.8711 124.696 69.1542C125.264 69.7517 126.068 70.0505 127.141 70.0505H130.296C131.384 70.0505 132.205 69.7674 132.773 69.1699C133.451 68.4937 133.782 67.6131 133.782 66.4495V63.1158H129.539C129.286 63.1158 129.05 63.0215 128.86 62.8485C128.671 62.6598 128.561 62.4397 128.561 62.1881C128.561 61.9365 128.655 61.7006 128.845 61.5119C129.018 61.3389 129.271 61.2289 129.539 61.2289H134.713C134.95 61.2289 135.17 61.2918 135.375 61.4333C135.596 61.622 135.691 61.8579 135.691 62.1409Z" fill="white"/>
<path d="M141.749 46.6675V71.0252C141.749 71.2768 141.654 71.5127 141.465 71.7014C141.275 71.8901 141.039 71.9844 140.786 71.9844C140.55 71.9844 140.313 71.8901 140.124 71.6857C139.95 71.497 139.856 71.2611 139.856 71.0095C139.84 70.7736 139.824 70.1604 139.808 68.4621C139.793 66.7638 139.793 63.9648 139.793 59.3574C139.793 51.9196 139.808 47.6424 139.856 46.6203C139.856 46.3844 139.95 46.1486 140.124 45.9599C140.502 45.5668 141.102 45.5825 141.465 45.9599C141.654 46.18 141.749 46.4159 141.749 46.6675Z" fill="white"/>
<path d="M160 66.308C160 66.5438 160 66.7483 159.968 66.9841C159.937 67.2043 159.889 67.5188 159.811 67.9434C159.716 68.3837 159.558 68.8397 159.322 69.3114C159.085 69.7674 158.785 70.192 158.422 70.5537C157.492 71.5129 156.198 72.0004 154.589 72.0004H151.434C149.825 72.0004 148.532 71.5129 147.601 70.538C146.56 69.4687 146.039 68.0692 146.039 66.3709V51.5266C146.039 51.275 146.055 50.992 146.087 50.6775C146.118 50.3473 146.26 49.8441 146.512 49.1679C146.765 48.476 147.128 47.8785 147.585 47.4067C148.2 46.7935 148.942 46.3689 149.778 46.1802C150.346 46.023 150.898 45.9443 151.418 45.9443H154.147C155.709 45.9443 157.003 46.4318 157.965 47.4067C158.391 47.8313 158.738 48.366 159.006 48.9635C159.258 49.561 159.4 50.0328 159.448 50.4102C159.495 50.7719 159.527 51.1178 159.527 51.4323V51.6053C159.527 51.8569 159.432 52.077 159.227 52.2657C158.833 52.6274 158.202 52.6274 157.855 52.2028C157.697 52.0141 157.618 51.794 157.618 51.5266C157.618 51.3694 157.602 51.165 157.586 50.9291C157.571 50.7719 157.507 50.4574 157.287 49.8598C157.129 49.4038 156.892 49.0264 156.608 48.7434C156.04 48.1773 155.283 47.8942 154.289 47.8942H151.418C150.961 47.8942 150.551 47.9257 150.22 48.02C149.683 48.193 149.257 48.4446 149.005 48.7276C148.295 49.4352 147.964 50.363 147.964 51.5738V66.3709C147.964 66.5281 147.964 66.7168 147.979 66.937C147.979 67.0628 148.043 67.3615 148.279 68.022C148.453 68.5252 148.689 68.934 148.989 69.2328C149.573 69.8146 150.377 70.0977 151.434 70.0977H154.589C155.678 70.0977 156.482 69.7989 157.066 69.2013C157.35 68.9183 157.571 68.5409 157.728 68.0849C157.933 67.5031 157.996 67.1886 158.028 67.047C158.044 66.8112 158.06 66.6067 158.06 66.4181C158.06 66.1507 158.154 65.8991 158.359 65.7262C158.549 65.5375 158.801 65.4588 159.101 65.4588C159.258 65.4588 159.495 65.506 159.716 65.7576C159.874 65.8991 159.968 66.1036 160 66.308Z" fill="white"/>
<path d="M61.9279 8.1416H15.9916C11.0226 8.1416 7 12.1514 7 17.1047V62.8954C7 67.8487 11.0226 71.8586 15.9916 71.8586H61.9279C66.897 71.8586 70.9196 67.8487 70.9196 62.8954V17.1047C70.9196 12.1514 66.897 8.1416 61.9279 8.1416ZM49.7813 27.1215C49.2607 26.6025 48.5351 26.2723 47.7306 26.2723C46.9418 26.2723 46.2162 26.6025 45.6799 27.1215C45.6641 27.1372 45.6325 27.1844 45.601 27.2001C45.5379 27.2787 45.459 27.3573 45.3959 27.4517C45.0489 27.9391 44.828 28.5367 44.828 29.1657V46.9662C44.828 48.5858 44.1655 50.0482 43.1086 51.1175C42.0832 52.1554 40.6635 52.8001 39.1018 52.8315C35.7733 52.9102 33.06 50.1583 33.06 46.8246V29.1657C33.06 28.5052 32.8234 27.8762 32.4448 27.3888C32.429 27.3573 32.3817 27.3259 32.3501 27.2944C32.3186 27.2315 32.2555 27.2001 32.2082 27.1372C31.6876 26.6183 30.962 26.288 30.1574 26.288C29.3529 26.288 28.6273 26.6183 28.1067 27.1372C27.5861 27.6718 27.2549 28.3952 27.2549 29.1814V58.6654C27.2549 60.2851 26.5923 61.7475 25.5354 62.8168C24.4627 63.8861 22.9957 64.5465 21.3709 64.5465H21.3551C18.1055 64.5465 15.4711 61.9205 15.4711 58.6812V26.3195C15.4711 19.8251 20.7556 14.5573 27.2706 14.5573H33.5017C35.1265 14.5573 36.5936 15.2178 37.6663 16.2713C38.1237 16.7274 38.7389 17.7966 38.8809 18.0482C38.8967 18.0797 38.9282 18.0797 38.944 18.0482C39.086 17.7966 39.6854 16.7274 40.1429 16.2713C41.2156 15.2178 42.6826 14.5573 44.3074 14.5573C44.3863 14.5573 44.481 14.5573 44.5598 14.5731C44.6387 14.5573 44.7176 14.5573 44.7965 14.5573H50.5858C50.8224 14.5573 51.0433 14.5731 51.2799 14.5731C54.2456 14.746 56.9273 16.0197 58.8992 17.9853C61.0761 20.1082 62.4012 23.033 62.4012 26.2723V43.9785C62.4012 45.5981 61.7386 47.0605 60.6659 48.1298C59.6406 49.1519 58.2208 49.7966 56.6591 49.8438C53.3306 49.9224 50.6332 47.1706 50.6332 43.8527V29.1657C50.6332 28.3794 50.3177 27.6561 49.7813 27.1215Z" fill="white"/>
<path d="M56.596 64.531C53.3464 64.531 50.712 61.905 50.712 58.6657C50.712 55.4263 53.3464 52.8003 56.596 52.8003C59.8456 52.8003 62.48 55.4263 62.48 58.6657C62.48 61.905 59.8456 64.531 56.596 64.531Z" fill="#E83565"/>
</svg>
