<svg width="21" height="16" viewBox="0 0 21 16" fill="none" xmlns="http://www.w3.org/2000/svg">
<path d="M17.7913 10.0203V15.1422C17.7913 15.6176 17.4012 16 16.9162 16H12.6866C12.446 16 12.2491 15.807 12.2491 15.5711V11.568C12.2491 11.3321 12.0522 11.1391 11.8115 11.1391H9.18628C8.94563 11.1391 8.74873 11.3321 8.74873 11.568V15.5711C8.74873 15.807 8.55184 16 8.31119 16H4.08159C3.59664 16 3.2065 15.6176 3.2065 15.1422V10.0203C3.2065 9.89166 3.26484 9.77013 3.36693 9.68793L10.2218 4.15503C10.3822 4.02636 10.6156 4.02636 10.7797 4.15503L17.6345 9.68793C17.733 9.77013 17.7913 9.89166 17.7913 10.0203ZM20.8396 7.84363L17.7913 5.38099V0.430694C17.7913 0.194795 17.5944 0.00178716 17.3538 0.00178716H15.3119C15.0713 0.00178716 14.8744 0.194795 14.8744 0.430694V3.02558L11.611 0.391377C10.9656 -0.130459 10.0322 -0.130459 9.38682 0.391377L0.158271 7.84363C-0.0276853 7.99374 -0.0532088 8.26539 0.0999319 8.44767L1.02971 9.55568C1.18286 9.73796 1.45997 9.76298 1.64592 9.61287L10.2218 2.6896C10.3822 2.56093 10.6156 2.56093 10.7797 2.6896L19.3556 9.61287C19.5415 9.76298 19.8186 9.73796 19.9718 9.55568L20.9015 8.44767C21.0547 8.26181 21.0255 7.99374 20.8396 7.84363Z" fill="#8799A3"/>
</svg>
