<svg width="62" height="60" viewBox="0 0 62 60" fill="none" xmlns="http://www.w3.org/2000/svg">
<path d="M43.5938 22.5C40.3848 22.5 37.7812 25.0195 37.7812 28.125C37.7812 31.2305 40.3848 33.75 43.5938 33.75C46.8027 33.75 49.4062 31.2305 49.4062 28.125C49.4062 25.0195 46.8027 22.5 43.5938 22.5ZM43.5938 31.875C41.4625 31.875 39.7188 30.1875 39.7188 28.125C39.7188 26.0625 41.4625 24.375 43.5938 24.375C45.725 24.375 47.4688 26.0625 47.4688 28.125C47.4688 30.1875 45.725 31.875 43.5938 31.875Z" fill="#3DBEE3"/>
<path d="M10.6562 4.6875H4.84375V10.3125H10.6562V4.6875ZM8.71875 8.4375H6.78125V6.5625H8.71875V8.4375Z" fill="#3DBEE3"/>
<path d="M18.4062 4.6875H12.5938V10.3125H18.4062V4.6875ZM16.4688 8.4375H14.5312V6.5625H16.4688V8.4375Z" fill="#3DBEE3"/>
<path d="M26.1562 4.6875H20.3438V10.3125H26.1562V4.6875ZM24.2188 8.4375H22.2812V6.5625H24.2188V8.4375Z" fill="#3DBEE3"/>
<path d="M29.0625 15.9375H4.84375V33.75H29.0625V15.9375ZM27.3309 31.5234H6.57539V18.1641H27.3309V31.5234Z" fill="#3DBEE3"/>
<path d="M61.0312 45.2812C61.0312 42.1055 59.5297 39.1992 57.1562 37.2422V3.75C57.1562 2.20312 55.8484 0.9375 54.25 0.9375H3.875C2.27656 0.9375 0.96875 2.20312 0.96875 3.75V39.375C0.96875 40.9219 2.27656 42.1875 3.875 42.1875H26.6527C26.3379 43.1719 26.1562 44.2148 26.1562 45.2812V46.875H30.6367C27.8637 49.8633 26.1562 53.8008 26.1562 58.125V59.0625H61.0312V58.125C61.0312 53.8008 59.3238 49.8633 56.5508 46.875H61.0312V45.2812ZM3.875 2.8125H54.25C54.7828 2.8125 55.2188 3.23438 55.2188 3.75V8.4375H30.5156L27.6094 12.1875H2.90625V3.75C2.90625 3.23438 3.34219 2.8125 3.875 2.8125ZM3.875 40.3125C3.34219 40.3125 2.90625 39.8906 2.90625 39.375V14.0625H28.5781L31.4844 10.3125H55.2188V35.9531C54.4437 35.5547 53.6082 35.2266 52.7363 35.0156C53.0875 33.3633 53.2812 31.6875 53.2812 30C53.2812 24.9023 51.6828 19.9922 48.6555 15.8086L47.4324 14.1211C46.5605 12.9023 45.1195 12.1875 43.5938 12.1875C42.068 12.1875 40.627 12.9141 39.7551 14.1211L38.532 15.8086C35.5047 19.9922 33.9062 24.9023 33.9062 30C33.9062 31.6875 34.1 33.3633 34.4512 35.0156C31.4117 35.7539 28.9051 37.7227 27.4641 40.3125H3.875ZM48.0258 41.8242C46.609 41.4609 45.1316 41.25 43.5938 41.25C42.0559 41.25 40.5785 41.4609 39.1617 41.8242L38.3383 40.2305C38.193 39.9492 38.0598 39.6562 37.9266 39.375H49.2609C49.1277 39.668 48.9945 39.9492 48.8492 40.2305L48.0258 41.8242ZM50.0238 37.5H37.1637C36.3039 35.0977 35.8438 32.5547 35.8438 30C35.8438 26.7305 36.5703 23.5547 37.9387 20.625H49.2488C50.6172 23.5547 51.3438 26.7305 51.3438 30C51.3438 32.5547 50.8836 35.0977 50.0238 37.5ZM38.9195 18.75C39.2949 18.1172 39.6824 17.4961 40.1184 16.8867L41.3414 15.1992C41.85 14.4844 42.6977 14.0625 43.5938 14.0625C44.4898 14.0625 45.3375 14.4844 45.8461 15.1992L47.0691 16.8867C47.5051 17.4844 47.8926 18.1172 48.268 18.75H38.9195ZM34.9113 36.8438C35.3473 38.2969 35.9043 39.7148 36.6066 41.0742L37.2969 42.4102C35.6137 43.043 34.0516 43.9219 32.659 45H28.0938C28.227 41.1328 31.0605 37.7812 34.9113 36.8438ZM32.5258 54.7031L34.2816 55.4062L35.0203 53.6719L33.2766 52.9688C33.6762 52.2188 34.1727 51.5039 34.7297 50.8594L36.0617 52.1484L37.4301 50.8242L36.098 49.5352C36.7641 48.9961 37.4906 48.5156 38.2777 48.1289L39.0043 49.8164L40.7965 49.1016L40.0699 47.4141C40.8934 47.1562 41.7531 46.9922 42.6371 46.9219V48.75H44.5746V46.9219C45.4586 46.9922 46.3184 47.1562 47.1418 47.4141L46.4152 49.1016L48.2074 49.8164L48.934 48.1289C49.709 48.5156 50.4477 48.9961 51.1137 49.5352L49.7816 50.8242L51.15 52.1484L52.482 50.8594C53.0391 51.5039 53.5355 52.207 53.9352 52.9688L52.1914 53.6719L52.9301 55.4062L54.6859 54.7031C54.9523 55.5 55.1219 56.332 55.1945 57.1875H48.3648C47.9773 55.3477 46.4758 53.9062 44.5867 53.5312V50.625H42.6492V53.5312C40.7602 53.9062 39.2586 55.3477 38.8711 57.1875H32.0414C32.0898 56.332 32.2594 55.5 32.5258 54.7031ZM43.5938 55.3125C44.8531 55.3125 45.9188 56.0977 46.3184 57.1875H40.8691C41.2687 56.0977 42.3344 55.3125 43.5938 55.3125ZM57.1078 57.1875C56.6113 50.3906 50.7504 45 43.5938 45C36.4371 45 30.5762 50.3906 30.0797 57.1875H28.118C28.6145 49.3477 35.3715 43.125 43.5938 43.125C51.816 43.125 58.5609 49.3477 59.0695 57.1875H57.1078ZM54.5285 45C53.148 43.9219 51.5738 43.043 49.8906 42.4102L50.5809 41.0742C51.2832 39.7148 51.8402 38.2969 52.2762 36.8438C56.127 37.7812 58.9605 41.1328 59.0938 45H54.5285Z" fill="#3DBEE3"/>
</svg>
