<svg width="62" height="60" viewBox="0 0 62 60" fill="none" xmlns="http://www.w3.org/2000/svg">
<g clip-path="url(#clip0)">
<path d="M56.7121 -0.117188H5.04573C2.19341 -0.113983 -0.117783 2.12265 -0.121094 4.88297V54.8827C-0.117783 57.643 2.19341 59.8796 5.04573 59.8828H56.7121C59.5644 59.8796 61.8756 57.643 61.8789 54.8827V4.88297C61.8756 2.12265 59.5644 -0.113983 56.7121 -0.117187V-0.117188ZM5.04573 1.88278H56.7121C58.4244 1.88278 59.8123 3.22586 59.8123 4.88297V7.88269H1.94554V4.88297C1.94554 3.22586 3.33339 1.88278 5.04573 1.88278ZM56.7121 57.8828H5.04573C3.33339 57.8828 1.94554 56.5398 1.94554 54.8827V9.88266H59.8123V54.8827C59.8123 56.5398 58.4244 57.8828 56.7121 57.8828Z" fill="#3DBEE3"/>
<path d="M5.04688 3.88281H7.11351V5.88278H5.04688V3.88281Z" fill="#3DBEE3"/>
<path d="M9.17969 3.88281H11.2463V5.88278H9.17969V3.88281Z" fill="#3DBEE3"/>
<path d="M13.3125 3.88281H15.3791V5.88278H13.3125V3.88281Z" fill="#3DBEE3"/>
<path d="M30.8778 13.8826C19.4637 13.8826 10.2109 22.8369 10.2109 33.8827C10.2109 44.9286 19.4637 53.8829 30.8778 53.8829C42.2918 53.8829 51.5446 44.9286 51.5446 33.8827C51.5313 22.8424 42.2861 13.8954 30.8778 13.8826ZM30.8778 51.8829C21.0171 51.8673 12.8811 44.4104 12.3306 34.8829H16.4113V32.883H12.3306C12.4677 30.4065 13.1361 27.9854 14.2936 25.773L17.8309 27.7487L18.8644 26.017L15.3238 24.039C16.7301 21.9648 18.5617 20.1928 20.7045 18.8319L22.7484 22.2578L24.5383 21.2581L22.4972 17.8349C24.7833 16.7148 27.2856 16.0675 29.8442 15.9347V19.8829H31.9108V15.9338C34.4699 16.0666 36.9717 16.7134 39.2578 17.834L37.2163 21.2567L39.0057 22.2569L41.0496 18.831C43.1929 20.1915 45.024 21.9639 46.4303 24.0376L42.8902 26.0156L43.9233 27.7478L47.4605 25.7716C48.618 27.984 49.2869 30.4055 49.424 32.8816H45.3442V34.882H49.425C48.8749 44.4099 40.7389 51.8673 30.8778 51.8829Z" fill="#3DBEE3"/>
<path d="M37.3815 26.1758L32.2076 31.1828C31.7937 30.9873 31.3396 30.8848 30.8789 30.8825C29.1524 30.8688 27.7413 32.2114 27.7267 33.8818C27.712 35.5526 29.0994 36.9181 30.8259 36.9323C32.552 36.9465 33.9635 35.6039 33.9781 33.9335C33.9819 33.4707 33.8764 33.0129 33.6688 32.5959L38.8418 27.5898L37.3815 26.1758ZM30.8789 34.8829C30.308 34.8829 29.8458 34.4352 29.8458 33.8827C29.8458 33.3306 30.3084 32.8829 30.8789 32.8829C31.1575 32.882 31.4238 32.9928 31.6144 33.1887C31.8074 33.3714 31.9148 33.6218 31.912 33.8827C31.912 34.4352 31.4498 34.8829 30.8789 34.8829Z" fill="#3DBEE3"/>
<path d="M27.7773 40.8828H33.9777V42.8828H27.7773V40.8828Z" fill="#3DBEE3"/>
</g>
<defs>
<clipPath id="clip0">
<rect width="62" height="60" fill="white"/>
</clipPath>
</defs>
</svg>
