<svg width="62" height="60" viewBox="0 0 62 60" fill="none" xmlns="http://www.w3.org/2000/svg">
<path d="M52.3125 0.9375H38.75C37.1477 0.9375 35.8438 2.19937 35.8438 3.75V5.625C33.7067 5.625 31.9688 7.30687 31.9688 9.375C31.9688 11.4431 33.7067 13.125 35.8438 13.125V17.8125H43.5938V15.9375C43.5938 14.9034 44.4627 14.0625 45.5312 14.0625C46.5998 14.0625 47.4688 14.9034 47.4688 15.9375V17.8125H52.3125C53.9148 17.8125 55.2188 16.5506 55.2188 15V3.75C55.2188 2.19937 53.9148 0.9375 52.3125 0.9375ZM53.2812 15C53.2812 15.5166 52.8472 15.9375 52.3125 15.9375H49.4062C49.4062 13.8694 47.6683 12.1875 45.5312 12.1875C43.3942 12.1875 41.6562 13.8694 41.6562 15.9375H37.7812V11.25H35.8438C34.7752 11.25 33.9062 10.4091 33.9062 9.375C33.9062 8.34094 34.7752 7.5 35.8438 7.5H37.7812V3.75C37.7812 3.23344 38.2153 2.8125 38.75 2.8125H52.3125C52.8472 2.8125 53.2812 3.23344 53.2812 3.75V15Z" fill="#3DBEE3"/>
<path d="M35.8438 19.6875C33.7067 19.6875 31.9688 21.3694 31.9688 23.4375H28.0938V18.75H26.1562C25.0877 18.75 24.2188 17.9091 24.2188 16.875C24.2188 15.8409 25.0877 15 26.1562 15H28.0938V6.5625H25.4965C15.1774 6.5625 6.78125 14.6878 6.78125 24.6741C6.78125 30.1284 9.28353 35.2378 13.6458 38.6916L17.4375 41.6944V44.2359C16.3128 44.6241 15.5 45.6553 15.5 46.8759C15.5 48.1725 16.4155 49.2562 17.6506 49.5797C17.516 49.9031 17.4375 50.2547 17.4375 50.625C17.4375 51.8644 18.2755 52.9069 19.4273 53.2809C19.8284 56.5322 22.691 59.0625 26.1562 59.0625C29.6215 59.0625 32.4841 56.5322 32.8852 53.2809C34.037 52.9069 34.875 51.8644 34.875 50.625C34.875 50.2547 34.7965 49.9031 34.6619 49.5788C35.897 49.2544 36.8125 48.1716 36.8125 46.875C36.8125 45.6544 35.9997 44.6231 34.875 44.235V41.6934L38.6667 38.6906C43.029 35.2378 45.5312 30.1284 45.5312 24.6741V23.4375H39.7188C39.7188 21.3694 37.9808 19.6875 35.8438 19.6875ZM25.4965 8.4375H26.1562V13.125C24.0192 13.125 22.2812 14.8069 22.2812 16.875C22.2812 18.9431 24.0192 20.625 26.1562 20.625V23.4375H22.2812C22.2812 21.3694 20.5433 19.6875 18.4062 19.6875C16.2692 19.6875 14.5312 21.3694 14.5312 23.4375H8.76719C9.42206 15.06 16.6751 8.4375 25.4965 8.4375ZM14.8723 37.2403C11.1319 34.2787 8.91734 29.9606 8.73231 25.3125H16.4688V23.4375C16.4688 22.4034 17.3377 21.5625 18.4062 21.5625C19.4748 21.5625 20.3438 22.4034 20.3438 23.4375V25.3125H26.1562V29.0625C24.0192 29.0625 22.2812 30.7444 22.2812 32.8125C22.2812 34.8806 24.0192 36.5625 26.1562 36.5625V44.0625H19.375V40.8056L14.8723 37.2403ZM26.1562 57.1875C23.8177 57.1875 21.8608 55.5741 21.4103 53.4375H30.9022C30.4517 55.5741 28.4948 57.1875 26.1562 57.1875ZM31.9688 51.5625H20.3438C19.809 51.5625 19.375 51.1416 19.375 50.625C19.375 50.1084 19.809 49.6875 20.3438 49.6875H31.9688C32.5035 49.6875 32.9375 50.1084 32.9375 50.625C32.9375 51.1416 32.5035 51.5625 31.9688 51.5625ZM33.9062 47.8125H31.9688H20.3438H18.4062C17.8715 47.8125 17.4375 47.3916 17.4375 46.875C17.4375 46.3584 17.8715 45.9375 18.4062 45.9375H33.9062C34.441 45.9375 34.875 46.3584 34.875 46.875C34.875 47.3916 34.441 47.8125 33.9062 47.8125ZM37.4402 37.2403L32.9375 40.8056V44.0625H28.0938V34.6875H26.1562C25.0877 34.6875 24.2188 33.8466 24.2188 32.8125C24.2188 31.7784 25.0877 30.9375 26.1562 30.9375H28.0938V25.3125H33.9062V23.4375C33.9062 22.4034 34.7752 21.5625 35.8438 21.5625C36.9123 21.5625 37.7812 22.4034 37.7812 23.4375V25.3125H43.5802C43.3952 29.9606 41.1806 34.2787 37.4402 37.2403Z" fill="#3DBEE3"/>
</svg>
