<svg width="62" height="62" viewBox="0 0 62 62" fill="none" xmlns="http://www.w3.org/2000/svg">
<g clip-path="url(#clip0)">
<path d="M60.7083 59.4167H1.29171C0.578707 59.4167 0 59.9953 0 60.7083C0 61.4213 0.578707 62 1.29171 62H60.7084C61.4214 62 62.0001 61.4213 62.0001 60.7083C62 59.9953 61.4213 59.4167 60.7083 59.4167Z" fill="#3DBEE3"/>
<path d="M11.6276 43.9167H3.87764C3.16464 43.9167 2.58594 44.4955 2.58594 45.2085V60.7085C2.58594 61.4213 3.16464 62 3.87764 62H11.6276C12.3406 62 12.9194 61.4213 12.9194 60.7083V45.2083C12.9194 44.4953 12.3406 43.9167 11.6276 43.9167ZM10.3359 59.4167H5.16935V46.5H10.3361V59.4167H10.3359Z" fill="#3DBEE3"/>
<path d="M27.1276 31H19.3776C18.6646 31 18.0859 31.5787 18.0859 32.2917V60.7084C18.0859 61.4214 18.6646 62.0001 19.3776 62.0001H27.1276C27.8406 62.0001 28.4194 61.4214 28.4194 60.7084V32.2917C28.4194 31.5787 27.8406 31 27.1276 31ZM25.8359 59.4167H20.6692V33.5833H25.8359V59.4167Z" fill="#3DBEE3"/>
<path d="M42.6276 36.1667H34.8776C34.1646 36.1667 33.5859 36.7455 33.5859 37.4585V60.7085C33.5859 61.4215 34.1646 62.0002 34.8776 62.0002H42.6276C43.3406 62.0002 43.9193 61.4215 43.9193 60.7085V37.4585C43.9193 36.7453 43.3406 36.1667 42.6276 36.1667ZM41.3359 59.4167H36.1692V38.75H41.3359V59.4167Z" fill="#3DBEE3"/>
<path d="M58.1276 20.6667H50.3776C49.6646 20.6667 49.0859 21.2455 49.0859 21.9585V60.7085C49.0859 61.4215 49.6646 62.0002 50.3776 62.0002H58.1276C58.8406 62.0002 59.4193 61.4215 59.4193 60.7085V21.9585C59.4193 21.2453 58.8406 20.6667 58.1276 20.6667ZM56.8359 59.4167H51.6692V23.25H56.8359V59.4167Z" fill="#3DBEE3"/>
<path d="M7.75264 23.25C4.90319 23.25 2.58594 25.5673 2.58594 28.4167C2.58594 31.2662 4.90319 33.5834 7.75264 33.5834C10.6021 33.5834 12.9194 31.2662 12.9194 28.4167C12.9194 25.5673 10.6021 23.25 7.75264 23.25ZM7.75264 31C6.32664 31 5.16935 29.84 5.16935 28.4167C5.16935 26.9933 6.32664 25.8334 7.75264 25.8334C9.17864 25.8334 10.3359 26.9934 10.3359 28.4167C10.3359 29.84 9.17864 31 7.75264 31Z" fill="#3DBEE3"/>
<path d="M23.2526 10.3333C20.4032 10.3333 18.0859 12.6505 18.0859 15.5C18.0859 18.3494 20.4032 20.6667 23.2526 20.6667C26.1021 20.6667 28.4194 18.3494 28.4194 15.5C28.4194 12.6505 26.1021 10.3333 23.2526 10.3333ZM23.2526 18.0832C21.8266 18.0832 20.6694 16.9233 20.6694 15.5C20.6694 14.0765 21.8266 12.9167 23.2526 12.9167C24.6786 12.9167 25.8359 14.0766 25.8359 15.5C25.8359 16.9234 24.6786 18.0832 23.2526 18.0832Z" fill="#3DBEE3"/>
<path d="M38.7526 15.5C35.9032 15.5 33.5859 17.8173 33.5859 20.6667C33.5859 23.5162 35.9032 25.8334 38.7526 25.8334C41.6021 25.8334 43.9193 23.5162 43.9193 20.6667C43.9193 17.8173 41.6021 15.5 38.7526 15.5ZM38.7526 23.25C37.3266 23.25 36.1693 22.09 36.1693 20.6667C36.1693 19.2433 37.3266 18.0834 38.7526 18.0834C40.1786 18.0834 41.3359 19.2434 41.3359 20.6667C41.3359 22.09 40.1786 23.25 38.7526 23.25Z" fill="#3DBEE3"/>
<path d="M54.2526 0C51.4032 0 49.0859 2.31725 49.0859 5.16671C49.0859 8.01616 51.4032 10.3334 54.2526 10.3334C57.1021 10.3334 59.4193 8.01616 59.4193 5.16671C59.4193 2.31725 57.1021 0 54.2526 0ZM54.2526 7.75C52.8266 7.75 51.6693 6.59004 51.6693 5.16671C51.6693 3.74325 52.8266 2.58341 54.2526 2.58341C55.6786 2.58341 56.8359 3.74337 56.8359 5.16671C56.8359 6.59004 55.6786 7.75 54.2526 7.75Z" fill="#3DBEE3"/>
<path d="M52.4229 6.99061C51.9191 6.48686 51.1002 6.48686 50.5964 6.99061L40.5731 17.0139C40.0694 17.5176 40.0694 18.3366 40.5731 18.8404C40.8263 19.0909 41.1569 19.2176 41.4876 19.2176C41.8157 19.2176 42.1464 19.0936 42.3996 18.8404L52.4229 8.81706C52.9266 8.31331 52.9266 7.49436 52.4229 6.99061Z" fill="#3DBEE3"/>
<path d="M35.6254 17.6856L27.3277 15.3193C26.6327 15.1178 25.9275 15.5208 25.7337 16.208C25.5374 16.8952 25.9352 17.6082 26.6198 17.8045L34.9175 20.1708C35.0363 20.2043 35.1552 20.2198 35.2714 20.2198C35.8346 20.2198 36.3512 19.8504 36.514 19.2821C36.7104 18.5975 36.3126 17.8819 35.6254 17.6856Z" fill="#3DBEE3"/>
<path d="M21.2351 17.1093C20.7908 16.5513 19.9796 16.4609 19.4216 16.9026L9.68239 24.6681C9.12439 25.1151 9.03139 25.9262 9.47835 26.4842C9.7341 26.8044 10.1113 26.9699 10.4884 26.9699C10.7699 26.9699 11.0541 26.8769 11.2919 26.6909L21.0311 18.9254C21.5891 18.4784 21.6821 17.6673 21.2351 17.1093Z" fill="#3DBEE3"/>
</g>
<defs>
<clipPath id="clip0">
<rect width="62" height="62" fill="white"/>
</clipPath>
</defs>
</svg>
