<svg width="62" height="60" viewBox="0 0 62 60" fill="none" xmlns="http://www.w3.org/2000/svg">
<path d="M54.25 16.875H54.0466C54.822 15.4268 55.2242 13.8186 55.2188 12.1875C55.2178 9.67156 54.2664 7.24272 52.5437 5.35833C50.821 3.47394 48.446 2.264 45.8656 1.95633C43.2853 1.64866 40.6777 2.26448 38.5339 3.68784C36.3901 5.11121 34.858 7.24392 34.2259 9.68441C33.0587 8.61278 31.5923 7.89606 30.0083 7.62304C28.4244 7.35001 26.7924 7.53269 25.3147 8.14843C23.8369 8.76418 22.5783 9.78593 21.6947 11.0871C20.8111 12.3883 20.3414 13.9118 20.3438 15.4688C20.3584 15.9692 20.4909 16.4598 20.7312 16.9032C20.5939 16.9182 20.4579 16.9433 20.3244 16.9782C18.6291 15.6282 15.035 15 11.625 15C6.95563 15 1.9375 16.1719 1.9375 18.75V35.625C1.9375 38.2032 6.95563 39.375 11.625 39.375C16.2944 39.375 21.3125 38.2032 21.3125 35.625V28.125H54.25C55.7916 28.125 57.27 27.5324 58.3601 26.4775C59.4501 25.4226 60.0625 23.9919 60.0625 22.5C60.0625 21.0082 59.4501 19.5775 58.3601 18.5226C57.27 17.4677 55.7916 16.875 54.25 16.875ZM19.375 35.625C19.375 36.1032 16.7109 37.5 11.625 37.5C6.53906 37.5 3.875 36.1032 3.875 35.625V32.3625C6.32331 33.365 8.96814 33.8385 11.625 33.75C14.2819 33.8385 16.9267 33.365 19.375 32.3625V35.625ZM19.375 30C19.375 30.4782 16.7109 31.875 11.625 31.875C6.53906 31.875 3.875 30.4782 3.875 30V26.7375C6.32331 27.74 8.96814 28.2135 11.625 28.125C14.2819 28.2135 16.9267 27.74 19.375 26.7375V30ZM19.375 24.375C19.375 24.8532 16.7109 26.25 11.625 26.25C6.53906 26.25 3.875 24.8532 3.875 24.375V21.1125C6.32331 22.115 8.96814 22.5885 11.625 22.5C14.2819 22.5885 16.9267 22.115 19.375 21.1125V24.375ZM11.625 20.625C6.53906 20.625 3.875 19.2282 3.875 18.75C3.875 18.2719 6.53906 16.875 11.625 16.875C16.7109 16.875 19.375 18.2719 19.375 18.75C19.375 19.2282 16.7109 20.625 11.625 20.625ZM54.25 26.25H21.3125V18.75H22.2812C22.4364 18.7498 22.5892 18.714 22.7273 18.6455C22.8654 18.5771 22.9847 18.478 23.0756 18.3563C23.163 18.2312 23.219 18.0881 23.2392 17.9384C23.2594 17.7886 23.2432 17.6364 23.1919 17.4938C23.0657 17.1732 22.9135 16.8629 22.7366 16.5657C22.508 16.2345 22.3529 15.861 22.2812 15.4688C22.2793 14.1241 22.7376 12.8167 23.5845 11.7506C24.4315 10.6846 25.6193 9.92001 26.9627 9.57627C28.306 9.23253 29.7292 9.32899 31.0099 9.85059C32.2906 10.3722 33.3568 11.2895 34.0419 12.4594C34.1468 12.6386 34.3098 12.7794 34.5057 12.8601C34.7016 12.9407 34.9194 12.9566 35.1256 12.9054C35.3318 12.8542 35.5148 12.7387 35.6464 12.5767C35.7779 12.4148 35.8507 12.2154 35.8534 12.0094C35.8787 10.678 36.2293 9.37136 36.8764 8.19622C37.5236 7.02109 38.449 6.01087 39.5769 5.24817C40.7048 4.48547 42.0032 3.99194 43.366 3.80795C44.7288 3.62396 46.1173 3.75473 47.4178 4.18956C48.7184 4.6244 49.8941 5.35095 50.8489 6.3098C51.8037 7.26866 52.5104 8.4326 52.9113 9.70644C53.3121 10.9803 53.3958 12.3278 53.1553 13.639C52.9149 14.9501 52.3572 16.1875 51.5278 17.25C51.4199 17.3893 51.3541 17.5549 51.338 17.7283C51.3218 17.9017 51.3559 18.0761 51.4363 18.2318C51.5168 18.3875 51.6405 18.5185 51.7935 18.61C51.9465 18.7016 52.1229 18.75 52.3028 18.75H54.25C55.2777 18.75 56.2633 19.1451 56.99 19.8484C57.7167 20.5517 58.125 21.5055 58.125 22.5C58.125 23.4946 57.7167 24.4484 56.99 25.1517C56.2633 25.8549 55.2777 26.25 54.25 26.25Z" fill="#3DBEE3"/>
<path d="M60.6821 52.8375C60.5926 52.7322 60.4802 52.6474 60.3529 52.5891C60.2257 52.5307 60.0867 52.5003 59.9458 52.5H59.0933V32.8125C59.091 32.0673 58.7841 31.3532 58.2396 30.8262C57.695 30.2993 56.9571 30.0022 56.1871 30H25.1871C24.417 30.0022 23.6791 30.2993 23.1346 30.8262C22.5901 31.3532 22.2831 32.0673 22.2808 32.8125V52.5H21.4283C21.2876 52.5007 21.1488 52.5311 21.0214 52.5891C20.8941 52.647 20.7813 52.7311 20.6909 52.8355C20.6006 52.9399 20.5348 53.0621 20.4982 53.1936C20.4616 53.3251 20.455 53.4627 20.4789 53.5969L20.9246 55.9969C20.9254 56.032 20.932 56.0668 20.9439 56.1C21.1229 56.6826 21.4908 57.1939 21.9932 57.5586C22.4956 57.9233 23.1059 58.1218 23.7339 58.125H57.6402C58.2682 58.1218 58.8785 57.9233 59.3809 57.5586C59.8833 57.1939 60.2512 56.6826 60.4302 56.1C60.4422 56.0668 60.4487 56.032 60.4496 55.9969L60.8952 53.5969C60.9196 53.4629 60.9131 53.3254 60.8763 53.1941C60.8395 53.0629 60.7731 52.9411 60.6821 52.8375ZM24.2183 32.8125C24.2183 32.5639 24.3204 32.3254 24.5021 32.1496C24.6837 31.9738 24.9301 31.875 25.1871 31.875H56.1871C56.444 31.875 56.6904 31.9738 56.8721 32.1496C57.0538 32.3254 57.1558 32.5639 57.1558 32.8125V52.5H43.5933C43.3364 52.5 43.09 52.5988 42.9083 52.7746C42.7266 52.9504 42.6246 53.1889 42.6246 53.4375H38.7496C38.7496 53.1889 38.6475 52.9504 38.4658 52.7746C38.2842 52.5988 38.0378 52.5 37.7808 52.5H24.2183V32.8125ZM58.5605 55.6125C58.4938 55.7976 58.3695 55.9583 58.2048 56.0724C58.04 56.1865 57.8428 56.2486 57.6402 56.25H23.7339C23.5313 56.2486 23.3341 56.1865 23.1694 56.0724C23.0046 55.9583 22.8804 55.7976 22.8136 55.6125L22.5908 54.375H36.8121C36.8121 54.6236 36.9141 54.8621 37.0958 55.0379C37.2775 55.2137 37.5239 55.3125 37.7808 55.3125H43.5933C43.8503 55.3125 44.0967 55.2137 44.2783 55.0379C44.46 54.8621 44.5621 54.6236 44.5621 54.375H58.7833L58.5605 55.6125Z" fill="#3DBEE3"/>
<path d="M10.6562 41.25H12.5938V43.125H10.6562V41.25Z" fill="#3DBEE3"/>
<path d="M12.5938 45H10.6562V55.3125C10.6562 55.5611 10.7583 55.7996 10.94 55.9754C11.1217 56.1512 11.3681 56.25 11.625 56.25H18.4062V54.375H12.5938V45Z" fill="#3DBEE3"/>
<path d="M44.5625 42.1875C44.5625 41.4458 44.3352 40.7208 43.9095 40.1041C43.4837 39.4874 42.8785 39.0068 42.1704 38.723C41.4623 38.4391 40.6832 38.3649 39.9315 38.5096C39.1799 38.6543 38.4894 39.0114 37.9475 39.5359C37.4055 40.0603 37.0365 40.7285 36.887 41.4559C36.7374 42.1833 36.8142 42.9373 37.1075 43.6226C37.4008 44.3078 37.8974 44.8935 38.5347 45.3055C39.1719 45.7176 39.9211 45.9375 40.6875 45.9375C41.7152 45.9375 42.7008 45.5424 43.4275 44.8392C44.1543 44.1359 44.5625 43.1821 44.5625 42.1875ZM38.75 42.1875C38.75 41.8167 38.8636 41.4542 39.0765 41.1458C39.2894 40.8375 39.592 40.5971 39.9461 40.4552C40.3001 40.3133 40.6897 40.2762 41.0655 40.3485C41.4413 40.4209 41.7866 40.5995 42.0575 40.8617C42.3285 41.1239 42.513 41.458 42.5878 41.8217C42.6625 42.1854 42.6242 42.5624 42.4775 42.905C42.3309 43.2477 42.0825 43.5405 41.7639 43.7465C41.4453 43.9525 41.0707 44.0625 40.6875 44.0625C40.1736 44.0625 39.6808 43.865 39.3175 43.5133C38.9541 43.1617 38.75 42.6848 38.75 42.1875Z" fill="#3DBEE3"/>
<path d="M38.75 50.625H42.625C42.8411 50.6249 43.051 50.555 43.2212 50.4262C43.3915 50.2974 43.5124 50.1173 43.5647 49.9144L43.7265 49.2881L44.299 49.6209C44.4843 49.7283 44.7013 49.7727 44.9156 49.747C45.1299 49.7214 45.3292 49.6272 45.4818 49.4794L48.2224 46.8281C48.3754 46.6803 48.4729 46.4873 48.4994 46.2797C48.5259 46.0721 48.4799 45.8619 48.3687 45.6825L48.0248 45.1284L48.6719 44.9719C48.8816 44.9213 49.0678 44.8043 49.2008 44.6395C49.3339 44.4747 49.4062 44.2716 49.4062 44.0625V40.3125C49.4062 40.1034 49.3339 39.9003 49.2008 39.7355C49.0678 39.5707 48.8816 39.4537 48.6719 39.4031L48.0248 39.2466L48.3687 38.6925C48.4799 38.5131 48.5259 38.3029 48.4994 38.0953C48.4729 37.8877 48.3754 37.6947 48.2224 37.5469L45.4818 34.8956C45.3292 34.7478 45.1299 34.6536 44.9156 34.628C44.7013 34.6023 44.4843 34.6467 44.299 34.7541L43.7265 35.0869L43.5647 34.4606C43.5124 34.2577 43.3915 34.0776 43.2212 33.9488C43.051 33.82 42.8411 33.7501 42.625 33.75H38.75C38.5339 33.7501 38.324 33.82 38.1538 33.9488C37.9835 34.0776 37.8626 34.2577 37.8103 34.4606L37.6485 35.0869L37.076 34.7541C36.8907 34.6467 36.6737 34.6023 36.4594 34.628C36.2451 34.6536 36.0458 34.7478 35.8932 34.8956L33.1526 37.5469C32.9996 37.6947 32.9021 37.8877 32.8756 38.0953C32.8491 38.3029 32.8951 38.5131 33.0063 38.6925L33.3502 39.2466L32.7031 39.4031C32.4934 39.4537 32.3072 39.5707 32.1742 39.7355C32.0411 39.9003 31.9688 40.1034 31.9688 40.3125V44.0625C31.9688 44.2716 32.0411 44.4747 32.1742 44.6395C32.3072 44.8043 32.4934 44.9213 32.7031 44.9719L33.3502 45.1284L33.0063 45.6825C32.8951 45.8619 32.8491 46.0721 32.8756 46.2797C32.9021 46.4873 32.9996 46.6803 33.1526 46.8281L35.8932 49.4794C36.0458 49.6272 36.2451 49.7214 36.4594 49.747C36.6737 49.7727 36.8907 49.7283 37.076 49.6209L37.6485 49.2881L37.8103 49.9144C37.8626 50.1173 37.9835 50.2974 38.1538 50.4262C38.324 50.555 38.5339 50.6249 38.75 50.625ZM36.7282 47.6363L35.0562 46.0191L35.6839 45.0084C35.7618 44.8828 35.8083 44.7413 35.8195 44.5952C35.8307 44.4491 35.8063 44.3025 35.7484 44.1671C35.6905 44.0317 35.6006 43.9114 35.4859 43.8157C35.3713 43.7201 35.235 43.6517 35.0881 43.6162L33.9062 43.335V41.0447L35.0881 40.7634C35.235 40.7279 35.3713 40.6596 35.4859 40.564C35.6006 40.4683 35.6905 40.348 35.7484 40.2126C35.8063 40.0772 35.8307 39.9306 35.8195 39.7845C35.8083 39.6384 35.7618 39.4969 35.6839 39.3712L35.0562 38.3606L36.7282 36.7434L37.7725 37.35C37.9023 37.4254 38.0486 37.4704 38.1996 37.4812C38.3505 37.492 38.502 37.4685 38.6419 37.4124C38.7818 37.3564 38.9061 37.2694 39.005 37.1584C39.1038 37.0474 39.1744 36.9156 39.2111 36.7734L39.5018 35.6297H41.8636L42.1542 36.7734C42.1909 36.9156 42.2615 37.0474 42.3603 37.1584C42.4592 37.2694 42.5835 37.3564 42.7234 37.4124C42.8633 37.4685 43.0148 37.492 43.1658 37.4812C43.3167 37.4704 43.463 37.4254 43.5928 37.35L44.6371 36.7434L46.3082 38.3606L45.6814 39.3712C45.6035 39.4969 45.557 39.6384 45.5458 39.7845C45.5346 39.9306 45.559 40.0772 45.6169 40.2126C45.6748 40.348 45.7647 40.4683 45.8794 40.564C45.9941 40.6596 46.1303 40.7279 46.2772 40.7634L47.4591 41.0447V43.3303L46.2772 43.6116C46.1303 43.6471 45.9941 43.7154 45.8794 43.811C45.7647 43.9067 45.6748 44.027 45.6169 44.1624C45.559 44.2978 45.5346 44.4444 45.5458 44.5905C45.557 44.7366 45.6035 44.8781 45.6814 45.0038L46.3082 46.0144L44.6371 47.6316L43.5928 47.025C43.4625 46.9498 43.3158 46.9049 43.1645 46.894C43.0132 46.8831 42.8613 46.9064 42.7209 46.9622C42.5811 47.0184 42.4568 47.1054 42.3581 47.2165C42.2593 47.3275 42.1888 47.4594 42.1523 47.6016L41.8616 48.7453H39.5066L39.216 47.6016C39.1793 47.4594 39.1087 47.3276 39.0098 47.2166C38.911 47.1056 38.7866 47.0186 38.6468 46.9626C38.5069 46.9065 38.3554 46.883 38.2044 46.8938C38.0534 46.9046 37.9072 46.9496 37.7774 47.025L36.7282 47.6363Z" fill="#3DBEE3"/>
<path d="M51.3438 41.25H55.2188V43.125H51.3438V41.25Z" fill="#3DBEE3"/>
<path d="M26.1562 41.25H30.0312V43.125H26.1562V41.25Z" fill="#3DBEE3"/>
<path d="M28.5803 13.125V11.25C27.5119 11.2499 26.4807 11.6294 25.6824 12.3166C24.8841 13.0037 24.3744 13.9506 24.25 14.9775L26.1749 15.195C26.2442 14.6247 26.5274 14.0989 26.9708 13.7173C27.4142 13.3357 27.987 13.125 28.5803 13.125Z" fill="#3DBEE3"/>
<path d="M49.4062 12.1875H51.3438C51.3417 10.4476 50.6266 8.77958 49.3553 7.5493C48.084 6.31903 46.3604 5.62699 44.5625 5.625V7.5C45.8467 7.50149 47.0778 7.99583 47.9858 8.87458C48.8939 9.75334 49.4047 10.9448 49.4062 12.1875Z" fill="#3DBEE3"/>
</svg>
