<svg width="62" height="60" viewBox="0 0 62 60" fill="none" xmlns="http://www.w3.org/2000/svg">
<path d="M49.2936 44.1808C49.0684 43.9628 48.756 43.8374 48.4375 43.8374C48.119 43.8374 47.8066 43.9627 47.5814 44.1808C47.3561 44.3987 47.2266 44.7011 47.2266 45.0093C47.2266 45.3187 47.3561 45.6198 47.5814 45.8377C47.8066 46.0568 48.119 46.1812 48.4375 46.1812C48.756 46.1812 49.0684 46.0568 49.2936 45.8377C49.5189 45.6198 49.6484 45.3175 49.6484 45.0093C49.6484 44.7011 49.5189 44.3987 49.2936 44.1808Z" fill="#3DBEE3"/>
<path d="M57.1562 0H4.84375C2.17291 0 0 2.10281 0 4.6875V41.4941C0 44.0788 2.17291 46.1816 4.84375 46.1816H23.8555V52.0642C20.3035 52.3991 17.5183 55.3044 17.5183 58.8281C17.5183 59.4752 18.0604 60 18.7292 60H43.2709C43.9397 60 44.4819 59.4752 44.4819 58.8281C44.4819 55.2247 41.5689 52.2689 37.9025 52.0462V46.1816H43.5535C44.2223 46.1816 44.7645 45.6568 44.7645 45.0097C44.7645 44.3626 44.2223 43.8379 43.5535 43.8379H4.84375C3.50833 43.8379 2.42188 42.7864 2.42188 41.4941V4.6875C2.42188 3.39516 3.50833 2.34375 4.84375 2.34375H57.1562C58.4917 2.34375 59.5781 3.39516 59.5781 4.6875V41.4941C59.5781 42.7864 58.4917 43.8379 57.1562 43.8379H52.9284C52.2596 43.8379 51.7174 44.3626 51.7174 45.0097C51.7174 45.6568 52.2596 46.1816 52.9284 46.1816H57.1562C59.8271 46.1816 62 44.0788 62 41.4941V4.6875C62 2.10281 59.8271 0 57.1562 0ZM26.2773 46.1816H35.4805V52.0312H26.2773V46.1816ZM37.4583 54.375C39.5767 54.375 41.3654 55.7674 41.8983 57.6562H20.1017C20.6345 55.7674 22.4232 54.375 24.5416 54.375H37.4583Z" fill="#3DBEE3"/>
<path d="M31.735 40.4308C31.5098 40.2128 31.1974 40.0874 30.8789 40.0874C30.5604 40.0874 30.248 40.2127 30.0228 40.4308C29.7975 40.6487 29.668 40.9511 29.668 41.2593C29.668 41.5675 29.7975 41.8698 30.0228 42.0877C30.248 42.3068 30.5604 42.4312 30.8789 42.4312C31.1974 42.4312 31.5098 42.3068 31.735 42.0877C31.9603 41.8698 32.0898 41.5675 32.0898 41.2593C32.0898 40.9511 31.9603 40.6487 31.735 40.4308Z" fill="#3DBEE3"/>
<path d="M30.0302 18.7972C29.8914 18.7196 29.7509 18.6484 29.6093 18.5802C29.619 18.4275 29.6255 18.2739 29.6255 18.1189C29.6255 14.0109 26.1721 10.6689 21.9272 10.6689C17.6823 10.6689 14.2288 14.011 14.2288 18.1189C14.2288 18.2739 14.2354 18.4275 14.2451 18.5802C14.1033 18.6486 13.9625 18.72 13.8243 18.7973C10.1481 20.8513 8.884 25.4165 11.0064 28.9742C12.0346 30.6975 13.6947 31.9303 15.6809 32.4453C16.3442 32.6172 17.0171 32.7023 17.6859 32.7023C19.0199 32.7023 20.3364 32.3636 21.5225 31.7009C21.661 31.6236 21.7951 31.5413 21.9272 31.4568C22.0594 31.5413 22.1935 31.6237 22.3319 31.7009C23.5182 32.3638 24.8346 32.7023 26.1685 32.7023C26.8371 32.7023 27.5105 32.6171 28.1736 32.4453C30.1598 31.9302 31.82 30.6975 32.8481 28.9741C34.9705 25.4165 33.7064 20.8513 30.0302 18.7972ZM21.9272 13.0127C24.7488 13.0127 27.06 15.1672 27.197 17.8654C25.3523 17.6301 23.4759 18.0535 21.9311 19.0404C21.2451 18.6007 20.4838 18.265 19.6658 18.0529C18.6691 17.7945 17.6502 17.7327 16.6575 17.8605C16.7971 15.1645 19.1073 13.0127 21.9272 13.0127ZM22.5034 23.1942C22.3141 23.2141 22.1221 23.2252 21.9272 23.2252C21.7324 23.2252 21.5405 23.2142 21.3511 23.1942C21.4283 23.025 21.5146 22.8584 21.6115 22.696C21.7089 22.5329 21.8162 22.379 21.9287 22.2303C22.0409 22.3791 22.1464 22.5341 22.243 22.696C22.34 22.8584 22.4261 23.025 22.5034 23.1942ZM16.3078 30.1813C14.9463 29.8283 13.8085 28.9834 13.1039 27.8021C11.693 25.4375 12.4655 22.4233 14.8117 20.9593C15.5234 22.623 16.8406 23.9839 18.4959 24.7851C18.4454 25.5798 18.5258 26.3857 18.745 27.1773C19.012 28.1417 19.4661 29.0267 20.0769 29.7949C18.9109 30.374 17.5826 30.512 16.3078 30.1813ZM19.5141 21.5241C19.3432 21.8105 19.1951 22.1055 19.0662 22.406C18.2048 21.8659 17.5162 21.09 17.098 20.173C17.2861 20.153 17.4751 20.1406 17.6649 20.1406C18.1231 20.1406 18.5846 20.199 19.039 20.3169C19.4045 20.4117 19.7532 20.5429 20.0824 20.7056C19.8777 20.9633 19.6865 21.2352 19.5141 21.5241ZM22.7701 26.5706C22.5975 27.1937 22.31 27.7674 21.9272 28.2723C21.5443 27.7674 21.2569 27.1937 21.0844 26.5706C20.9865 26.2169 20.9297 25.859 20.9107 25.5018C21.2435 25.5446 21.5824 25.5689 21.9272 25.5689C22.272 25.5689 22.6109 25.5446 22.9438 25.5018C22.9248 25.859 22.868 26.2169 22.7701 26.5706ZM26.1899 20.1439C26.378 20.1439 26.5667 20.156 26.7551 20.1757C26.3369 21.0916 25.6487 21.8664 24.7882 22.4061C24.6594 22.1055 24.5113 21.8105 24.3404 21.5241C24.1697 21.238 23.98 20.9667 23.7757 20.7086C24.5218 20.34 25.3502 20.1439 26.1899 20.1439ZM30.7506 27.8022C30.046 28.9835 28.908 29.8284 27.5467 30.1814C26.2716 30.512 24.9437 30.3739 23.7776 29.7949C24.3885 29.0267 24.8424 28.1418 25.1095 27.1773C25.3286 26.3858 25.409 25.5799 25.3586 24.7851C27.0139 23.9839 28.331 22.623 29.0428 20.9593C31.389 22.4232 32.1615 25.4375 30.7506 27.8022Z" fill="#3DBEE3"/>
<path d="M51.1743 20.5175H45.5677V20.3516C45.5677 19.7045 45.0256 19.1797 44.3568 19.1797C43.688 19.1797 43.1458 19.7045 43.1458 20.3516V20.5175H37.5391C36.8703 20.5175 36.3281 21.0423 36.3281 21.6894C36.3281 22.3365 36.8703 22.8612 37.5391 22.8612H43.1458V23.0273C43.1458 23.6744 43.688 24.1992 44.3568 24.1992C45.0256 24.1992 45.5677 23.6744 45.5677 23.0273V22.8612H51.1743C51.8431 22.8612 52.3853 22.3365 52.3853 21.6894C52.3853 21.0423 51.8431 20.5175 51.1743 20.5175Z" fill="#3DBEE3"/>
<path d="M51.1745 13.0175H40.6472V12.8516C40.6472 12.2045 40.105 11.6797 39.4362 11.6797C38.7674 11.6797 38.2253 12.2045 38.2253 12.8516V13.0175H37.5391C36.8703 13.0175 36.3281 13.5423 36.3281 14.1894C36.3281 14.8365 36.8703 15.3612 37.5391 15.3612H38.2253V15.5273C38.2253 16.1744 38.7674 16.6992 39.4362 16.6992C40.105 16.6992 40.6472 16.1744 40.6472 15.5273V15.3612H51.1745C51.8433 15.3612 52.3854 14.8365 52.3854 14.1894C52.3854 13.5423 51.8433 13.0175 51.1745 13.0175Z" fill="#3DBEE3"/>
<path d="M51.1745 28.0175H50.4882V27.8516C50.4882 27.2045 49.9461 26.6797 49.2773 26.6797C48.6085 26.6797 48.0664 27.2045 48.0664 27.8516V28.0175H37.5391C36.8703 28.0175 36.3281 28.5423 36.3281 29.1894C36.3281 29.8365 36.8703 30.3612 37.5391 30.3612H48.0664V30.5273C48.0664 31.1744 48.6085 31.6992 49.2773 31.6992C49.9461 31.6992 50.4882 31.1744 50.4882 30.5273V30.3612H51.1745C51.8433 30.3612 52.3854 29.8365 52.3854 29.1894C52.3854 28.5423 51.8433 28.0175 51.1745 28.0175Z" fill="#3DBEE3"/>
<path d="M55.9453 4.69727H6.05469C5.38589 4.69727 4.84375 5.22203 4.84375 5.86914V37.5098C4.84375 38.1569 5.38589 38.6816 6.05469 38.6816H55.9453C56.6141 38.6816 57.1562 38.1569 57.1562 37.5098V5.86914C57.1562 5.22203 56.6141 4.69727 55.9453 4.69727ZM54.7344 36.3379H7.26562V7.04102H54.7344V36.3379Z" fill="#3DBEE3"/>
</svg>
