<svg width="60" height="60" viewBox="0 0 60 60" fill="none" xmlns="http://www.w3.org/2000/svg">
<path d="M35.3521 22.9065C34.7091 22.9065 34.1875 23.428 34.1875 24.071V24.0876C34.1875 24.7306 34.709 25.2521 35.3521 25.2521C35.9951 25.2521 36.5166 24.7306 36.5166 24.0876V24.071C36.5166 23.4279 35.9952 22.9065 35.3521 22.9065Z" fill="#3DBEE3"/>
<path d="M42.0681 28.038V18.4795C42.0681 18.1103 41.8929 17.7628 41.5959 17.5432C41.2991 17.3237 40.9155 17.2577 40.5625 17.3661L14.4455 25.3643H7.78031C3.49031 25.3643 0 28.8544 0 33.1445C0 37.2036 3.12516 40.5446 7.09547 40.8928L9.65871 53.1819C10.08 55.202 11.8836 56.6682 13.9472 56.6682C15.2719 56.6682 16.5109 56.0787 17.3464 55.0508C18.182 54.0228 18.5061 52.6897 18.2355 51.3928L17.6739 48.7003C20.1304 47.9421 21.9914 45.9023 22.5329 43.4014L40.5622 48.9227C40.674 48.9569 40.7889 48.9737 40.9031 48.9737C41.1496 48.9737 41.3929 48.8954 41.5957 48.7454C41.8927 48.5258 42.0679 48.1784 42.0679 47.8091V38.2506C44.3977 37.7195 46.142 35.6325 46.142 33.1442C46.142 30.6562 44.3977 28.5693 42.0681 28.038ZM7.78031 38.5953C4.77445 38.5953 2.3291 36.15 2.3291 33.1444C2.3291 30.1385 4.77457 27.6933 7.78031 27.6933H13.4551V38.5955H8.04879H7.78031V38.5953ZM15.5394 53.5816C15.1481 54.063 14.5677 54.3391 13.9473 54.3391C12.9809 54.3391 12.1362 53.6525 11.9388 52.7064L9.48129 40.9244H13.6731L15.161 48.058C15.1612 48.0588 15.1614 48.0598 15.1616 48.0606L15.9558 51.8684C16.0825 52.4757 15.9307 53.1002 15.5394 53.5816ZM17.1955 46.4054L16.1619 41.4501L20.2951 42.7159C20.0002 44.4142 18.8066 45.8255 17.1955 46.4054ZM39.739 46.2346L36.5173 45.248V28.7409C36.5173 28.0979 35.9958 27.5763 35.3528 27.5763C34.7098 27.5763 34.1883 28.0978 34.1883 28.7409V44.5348L22.0507 40.8177C21.9377 40.7612 21.8145 40.7225 21.6843 40.7054L15.7845 38.8986V27.3901L39.7391 20.0542V46.2346H39.739ZM42.068 35.8097V30.4791C43.0941 30.9291 43.8128 31.9541 43.8128 33.1444C43.8128 34.3346 43.0941 35.3597 42.068 35.8097Z" fill="#3DBEE3"/>
<path d="M54.7023 31.9797H49.5084C48.8654 31.9797 48.3438 32.5012 48.3438 33.1443C48.3438 33.7874 48.8652 34.3088 49.5084 34.3088H54.7023C55.3454 34.3088 55.8668 33.7874 55.8668 33.1443C55.8668 32.5012 55.3454 31.9797 54.7023 31.9797Z" fill="#3DBEE3"/>
<path d="M51.3793 22.9962C51.0003 22.4764 50.2716 22.3626 49.7522 22.7416L47.1385 24.6479C46.6189 25.0269 46.5049 25.7555 46.8839 26.2751C47.1118 26.5877 47.4663 26.7534 47.8256 26.7534C48.0636 26.7534 48.3039 26.6807 48.5109 26.5296L51.1246 24.6233C51.6443 24.2443 51.7583 23.5158 51.3793 22.9962Z" fill="#3DBEE3"/>
<path d="M51.1244 41.6655L48.5267 39.7708C48.0072 39.392 47.2786 39.5058 46.8996 40.0255C46.5205 40.5451 46.6346 41.2737 47.1542 41.6526L49.7519 43.5472C49.959 43.6983 50.1991 43.771 50.4372 43.771C50.7965 43.771 51.1511 43.6051 51.3789 43.2927C51.7582 42.773 51.644 42.0444 51.1244 41.6655Z" fill="#3DBEE3"/>
<path d="M53.0592 7.52417H28.8871C28.2441 7.52417 27.7227 8.04565 27.7227 8.68866C27.7227 9.33167 28.2441 9.85315 28.8871 9.85315H53.0592C53.7022 9.85315 54.2238 9.33167 54.2238 8.68866C54.2238 8.04565 53.7023 7.52417 53.0592 7.52417Z" fill="#3DBEE3"/>
<path d="M17.0778 7.86542C16.8611 7.64886 16.5609 7.52417 16.2545 7.52417C15.9481 7.52417 15.6478 7.64862 15.4312 7.86542C15.2135 8.08198 15.0898 8.38245 15.0898 8.68878C15.0898 8.99511 15.2134 9.29546 15.4312 9.51202C15.6477 9.72858 15.9481 9.85339 16.2545 9.85339C16.5609 9.85339 16.8611 9.72882 17.0778 9.51202C17.2944 9.29558 17.4191 8.99511 17.4191 8.68878C17.4191 8.38245 17.2945 8.08198 17.0778 7.86542Z" fill="#3DBEE3"/>
<path d="M12.8005 7.86542C12.5838 7.64886 12.2836 7.52417 11.9771 7.52417C11.6708 7.52417 11.3704 7.64862 11.1539 7.86542C10.9373 8.08198 10.8125 8.38245 10.8125 8.68878C10.8125 8.99511 10.9371 9.29546 11.1539 9.51202C11.3703 9.72858 11.6708 9.85339 11.9771 9.85339C12.2836 9.85339 12.5838 9.72882 12.8005 9.51202C13.017 9.29558 13.1417 8.99511 13.1417 8.68878C13.1417 8.38245 13.0171 8.08198 12.8005 7.86542Z" fill="#3DBEE3"/>
<path d="M21.3591 7.86542C21.1413 7.64874 20.8421 7.52417 20.5357 7.52417C20.2283 7.52417 19.929 7.64862 19.7113 7.86542C19.4947 8.08198 19.3711 8.38245 19.3711 8.68878C19.3711 8.99511 19.4946 9.29546 19.7113 9.51202C19.9289 9.72858 20.2282 9.85339 20.5357 9.85339C20.8421 9.85339 21.1412 9.72882 21.3591 9.51202C21.5756 9.29558 21.7003 8.99511 21.7003 8.68878C21.7003 8.38245 21.5757 8.08198 21.3591 7.86542Z" fill="#3DBEE3"/>
<path d="M55.1068 3.33203H9.92231C7.22535 3.33203 5.03125 5.52613 5.03125 8.22309V24.1773C5.03125 24.8204 5.55273 25.3418 6.19574 25.3418C6.83875 25.3418 7.36024 24.8204 7.36024 24.1773V19.6441H14.6174C15.2604 19.6441 15.782 19.1226 15.782 18.4796C15.782 17.8366 15.2606 17.315 14.6174 17.315H7.36035V14.0451C7.36469 14.0451 7.36891 14.0458 7.37301 14.0458H57.6687V44.324C57.6687 45.7367 56.5195 46.8859 55.1068 46.8859H45.8292C45.1862 46.8859 44.6646 47.4074 44.6646 48.0505C44.6646 48.6937 45.186 49.215 45.8292 49.215H55.1068C57.8037 49.215 59.9978 47.0209 59.9978 44.324V8.22309C59.9978 5.52613 57.8037 3.33203 55.1068 3.33203ZM57.6687 11.7168H7.37301C7.36867 11.7168 7.36445 11.7174 7.36035 11.7175V8.22309C7.36035 6.81039 8.50961 5.66113 9.92231 5.66113H55.1068C56.5195 5.66113 57.6687 6.81039 57.6687 8.22309V11.7168Z" fill="#3DBEE3"/>
<path d="M19.2183 17.6558C19.0019 17.4393 18.7014 17.3145 18.3951 17.3145C18.0887 17.3145 17.7884 17.439 17.5717 17.6558C17.3552 17.8723 17.2305 18.1727 17.2305 18.4791C17.2305 18.7855 17.3549 19.0859 17.5717 19.3024C17.7883 19.5202 18.0887 19.6437 18.3951 19.6437C18.7014 19.6437 19.0018 19.5204 19.2183 19.3024C19.4349 19.086 19.5597 18.7855 19.5597 18.4791C19.5597 18.1727 19.435 17.8723 19.2183 17.6558Z" fill="#3DBEE3"/>
</svg>
