<svg width="62" height="60" viewBox="0 0 62 60" fill="none" xmlns="http://www.w3.org/2000/svg">
<path d="M59.2313 40.3219L55.6673 39.8288C55.4512 39.148 55.1683 38.4887 54.8225 37.86L56.9828 35.0738C57.1227 34.8932 57.1906 34.6699 57.1741 34.4448C57.1575 34.2198 57.0576 34.008 56.8928 33.8485L54.1531 31.1925C53.9883 31.033 53.7694 30.9363 53.5369 30.9203C53.3043 30.9043 53.0735 30.97 52.887 31.1053L50.0079 33.196C49.3582 32.8613 48.677 32.5876 47.9735 32.3784L47.4639 28.9294C47.4307 28.7053 47.3148 28.5004 47.1376 28.3525C46.9604 28.2047 46.734 28.1239 46.5 28.125H42.625C42.3919 28.125 42.1666 28.2063 41.9904 28.3541C41.8143 28.5018 41.699 28.7061 41.6659 28.9294L41.1564 32.3784C40.4529 32.5876 39.7717 32.8613 39.122 33.196L36.2429 31.1053C36.0563 30.97 35.8256 30.9043 35.593 30.9203C35.3604 30.9363 35.1416 31.033 34.9767 31.1925L32.2323 33.8438C32.0674 34.0033 31.9675 34.2151 31.9509 34.4401C31.9344 34.6652 32.0023 34.8885 32.1422 35.0691L34.3025 37.8553C33.9567 38.484 33.6738 39.1433 33.4577 39.8241L29.8937 40.3172C29.6621 40.3493 29.4504 40.4615 29.2976 40.633C29.1448 40.8044 29.0613 41.0236 29.0625 41.25V45C29.0625 45.2256 29.1465 45.4437 29.2992 45.6141C29.4519 45.7846 29.6629 45.8961 29.8937 45.9281L33.4577 46.4213C33.6738 47.1021 33.9567 47.7613 34.3025 48.39L32.1422 51.1763C32.0023 51.3568 31.9344 51.5801 31.9509 51.8052C31.9675 52.0303 32.0674 52.242 32.2323 52.4016L34.9719 55.0575C35.1368 55.2171 35.3556 55.3137 35.5882 55.3298C35.8207 55.3458 36.0515 55.2801 36.238 55.1447L39.1172 53.0541C39.7668 53.3887 40.448 53.6624 41.1515 53.8716L41.6611 57.3206C41.6943 57.5448 41.8102 57.7497 41.9874 57.8975C42.1646 58.0454 42.3911 58.1262 42.625 58.125H46.5C46.7331 58.125 46.9584 58.0437 47.1346 57.896C47.3108 57.7482 47.426 57.544 47.4591 57.3206L47.9686 53.8716C48.6721 53.6624 49.3534 53.3887 50.003 53.0541L52.8821 55.1447C53.0687 55.2801 53.2994 55.3458 53.532 55.3298C53.7646 55.3137 53.9834 55.2171 54.1483 55.0575L56.8928 52.4063C57.0576 52.2467 57.1575 52.035 57.1741 51.8099C57.1906 51.5848 57.1227 51.3615 56.9828 51.181L54.8225 48.3947C55.1683 47.766 55.4512 47.1068 55.6673 46.426L59.2313 45.9328C59.4629 45.9007 59.6746 45.7885 59.8274 45.6171C59.9802 45.4456 60.0637 45.2264 60.0625 45V41.25C60.0625 41.0244 59.9785 40.8064 59.8258 40.6359C59.6732 40.4654 59.4621 40.3539 59.2313 40.3219ZM58.125 44.1872L54.7654 44.6513C54.5738 44.6778 54.3949 44.7592 54.2516 44.885C54.1083 45.0108 54.0072 45.1753 53.9613 45.3572C53.7285 46.2828 53.3498 47.1681 52.8385 47.9822C52.7385 48.1424 52.6902 48.328 52.7001 48.5149C52.7099 48.7019 52.7774 48.8817 52.8938 49.0313L54.9281 51.6563L53.3781 53.1563L50.6656 51.1875C50.5109 51.0752 50.325 51.0102 50.1318 51.001C49.9386 50.9918 49.747 51.0388 49.5816 51.136C48.7404 51.6307 47.8255 51.9972 46.8691 52.2225C46.6811 52.2669 46.5112 52.3647 46.3812 52.5034C46.2511 52.6421 46.167 52.8153 46.1396 53.0006L45.6601 56.25H43.4649L42.9854 52.9988C42.958 52.8134 42.8739 52.6402 42.7439 52.5015C42.6139 52.3628 42.4439 52.265 42.2559 52.2206C41.2995 51.9953 40.3846 51.6288 39.5434 51.1341C39.3781 51.037 39.1864 50.99 38.9932 50.9992C38.8 51.0083 38.6141 51.0733 38.4594 51.1856L35.7469 53.1544L34.1969 51.6544L36.2313 49.0294C36.3474 48.8797 36.4145 48.6997 36.424 48.5128C36.4335 48.3258 36.3849 48.1404 36.2845 47.9803C35.7733 47.1663 35.3946 46.2809 35.1618 45.3553C35.1159 45.1734 35.0148 45.0089 34.8715 44.8831C34.7282 44.7573 34.5492 44.6759 34.3577 44.6494L31 44.1872V42.0628L34.3596 41.5988C34.5512 41.5723 34.7301 41.4909 34.8735 41.365C35.0168 41.2392 35.1179 41.0747 35.1637 40.8928C35.3965 39.9673 35.7752 39.0819 36.2865 38.2678C36.3868 38.1078 36.4354 37.9224 36.4259 37.7354C36.4164 37.5484 36.3493 37.3685 36.2332 37.2188L34.1988 34.5938L35.7488 33.0938L38.4613 35.0625C38.616 35.1749 38.802 35.2398 38.9952 35.249C39.1884 35.2582 39.38 35.2112 39.5454 35.1141C40.3865 34.6193 41.3014 34.2528 42.2579 34.0275C42.4458 33.9831 42.6158 33.8853 42.7458 33.7466C42.8758 33.6079 42.9599 33.4348 42.9873 33.2494L43.4649 30H45.6601L46.1396 33.2513C46.167 33.4366 46.2511 33.6098 46.3812 33.7485C46.5112 33.8872 46.6811 33.985 46.8691 34.0294C47.8255 34.2547 48.7404 34.6212 49.5816 35.116C49.7472 35.2128 49.9389 35.2595 50.1321 35.25C50.3253 35.2404 50.5111 35.1751 50.6656 35.0625L53.3781 33.0938L54.9281 34.5938L52.8938 37.2188C52.7777 37.3685 52.7106 37.5484 52.7011 37.7354C52.6916 37.9224 52.7401 38.1078 52.8405 38.2678C53.3517 39.0819 53.7304 39.9673 53.9633 40.8928C54.0091 41.0747 54.1102 41.2392 54.2535 41.365C54.3968 41.4909 54.5758 41.5723 54.7673 41.5988L58.125 42.0628V44.1872Z" fill="#3DBEE3"/>
<path d="M44.5625 36.5625C43.2213 36.5625 41.9102 36.9474 40.795 37.6685C39.6799 38.3896 38.8107 39.4145 38.2974 40.6136C37.7842 41.8128 37.6499 43.1323 37.9116 44.4053C38.1732 45.6783 38.8191 46.8476 39.7674 47.7654C40.7158 48.6832 41.9241 49.3082 43.2395 49.5614C44.555 49.8146 45.9185 49.6847 47.1576 49.188C48.3967 48.6913 49.4558 47.8501 50.2009 46.7709C50.946 45.6917 51.3438 44.4229 51.3438 43.125C51.3417 41.3851 50.6266 39.7171 49.3553 38.4868C48.084 37.2565 46.3604 36.5645 44.5625 36.5625ZM44.5625 47.8125C43.6045 47.8125 42.668 47.5376 41.8715 47.0225C41.0749 46.5074 40.4541 45.7754 40.0875 44.9188C39.7209 44.0623 39.6249 43.1198 39.8118 42.2105C39.9987 41.3012 40.46 40.466 41.1375 39.8104C41.8149 39.1549 42.6779 38.7084 43.6175 38.5276C44.5571 38.3467 45.531 38.4395 46.4161 38.7943C47.3012 39.1491 48.0577 39.7499 48.5899 40.5208C49.1222 41.2916 49.4063 42.1979 49.4063 43.125C49.4047 44.3677 48.8939 45.5592 47.9858 46.4379C47.0778 47.3167 45.8467 47.811 44.5625 47.8125Z" fill="#3DBEE3"/>
<path d="M3.875 45.9375V11.25H50.375V30H52.3125V6.5625C52.311 5.31975 51.8001 4.12834 50.8921 3.24958C49.9841 2.37083 48.7529 1.87649 47.4688 1.875H6.78125C5.49708 1.87649 4.26595 2.37083 3.3579 3.24958C2.44985 4.12834 1.93904 5.31975 1.9375 6.5625V45.9375C1.93904 47.1802 2.44985 48.3717 3.3579 49.2504C4.26595 50.1292 5.49708 50.6235 6.78125 50.625H30.0312V48.75H6.78125C6.01046 48.75 5.27125 48.4537 4.72622 47.9262C4.18119 47.3988 3.875 46.6834 3.875 45.9375ZM6.78125 3.75H47.4688C48.2395 3.75 48.9787 4.04632 49.5238 4.57376C50.0688 5.10121 50.375 5.81658 50.375 6.5625V9.375H3.875V6.5625C3.875 5.81658 4.18119 5.10121 4.72622 4.57376C5.27125 4.04632 6.01046 3.75 6.78125 3.75Z" fill="#3DBEE3"/>
<path d="M9.6875 5.625H7.75V7.5H9.6875V5.625Z" fill="#3DBEE3"/>
<path d="M13.5625 5.625H11.625V7.5H13.5625V5.625Z" fill="#3DBEE3"/>
<path d="M17.4375 5.625H15.5V7.5H17.4375V5.625Z" fill="#3DBEE3"/>
<path d="M42.625 5.625H21.3125V7.5H42.625V5.625Z" fill="#3DBEE3"/>
<path d="M46.5 26.25V16.875C46.5 16.3777 46.2959 15.9008 45.9325 15.5492C45.5692 15.1975 45.0764 15 44.5625 15H9.6875C9.17364 15 8.68083 15.1975 8.31748 15.5492C7.95413 15.9008 7.75 16.3777 7.75 16.875V33.75C7.75 34.2473 7.95413 34.7242 8.31748 35.0758C8.68083 35.4275 9.17364 35.625 9.6875 35.625H30.0312V33.75H9.6875V16.875H44.5625V26.25H46.5Z" fill="#3DBEE3"/>
<path d="M24.2188 39.375H8.71875V41.25H24.2188V39.375Z" fill="#3DBEE3"/>
<path d="M24.2188 43.125H8.71875V45H24.2188V43.125Z" fill="#3DBEE3"/>
<path d="M28.0938 24.375H26.1562V26.25H28.0938V24.375Z" fill="#3DBEE3"/>
<path d="M33.9062 24.375H30.0312V26.25H33.9062V24.375Z" fill="#3DBEE3"/>
<path d="M24.2188 24.375H20.3438V26.25H24.2188V24.375Z" fill="#3DBEE3"/>
<path d="M45.5312 32.8125H43.5938V34.6875H45.5312V32.8125Z" fill="#3DBEE3"/>
<path d="M37.7138 35.17L36.3438 36.4958L37.7138 37.8217L39.0838 36.4958L37.7138 35.17Z" fill="#3DBEE3"/>
<path d="M35.8438 42.1875H33.9062V44.0625H35.8438V42.1875Z" fill="#3DBEE3"/>
<path d="M37.7138 48.4283L36.3438 49.7542L37.7138 51.08L39.0838 49.7542L37.7138 48.4283Z" fill="#3DBEE3"/>
<path d="M45.5312 51.5625H43.5938V53.4375H45.5312V51.5625Z" fill="#3DBEE3"/>
<path d="M51.413 48.4283L50.043 49.7542L51.413 51.08L52.783 49.7542L51.413 48.4283Z" fill="#3DBEE3"/>
<path d="M55.2188 42.1875H53.2812V44.0625H55.2188V42.1875Z" fill="#3DBEE3"/>
<path d="M51.413 35.17L50.043 36.4958L51.413 37.8217L52.783 36.4958L51.413 35.17Z" fill="#3DBEE3"/>
</svg>
