<svg width="45" height="45" viewBox="0 0 45 45" fill="none" xmlns="http://www.w3.org/2000/svg">
<g clip-path="url(#clipl1)">
<path d="M44.0625 43.1251H0.937529C0.420029 43.1251 0 43.545 0 44.0625C0 44.58 0.420029 45 0.937529 45H44.0626C44.5801 45 45.0001 44.58 45.0001 44.0625C45 43.545 44.58 43.1251 44.0625 43.1251Z" fill="#3DBEE3"/>
<path d="M8.43802 31.8751H2.81302C2.29552 31.8751 1.87549 32.2951 1.87549 32.8126V44.0626C1.87549 44.58 2.29552 45 2.81302 45H8.43802C8.95552 45 9.37555 44.58 9.37555 44.0625V32.8125C9.37555 32.295 8.95552 31.8751 8.43802 31.8751ZM7.50049 43.1251H3.75055V33.75H7.50058V43.1251H7.50049Z" fill="#3DBEE3"/>
<path d="M19.688 22.5H14.063C13.5455 22.5 13.1255 22.92 13.1255 23.4375V44.0626C13.1255 44.5801 13.5455 45.0001 14.063 45.0001H19.688C20.2055 45.0001 20.6255 44.5801 20.6255 44.0626V23.4375C20.6255 22.92 20.2055 22.5 19.688 22.5ZM18.7505 43.125H15.0005V24.375H18.7505V43.125Z" fill="#3DBEE3"/>
<path d="M30.938 26.2501H25.313C24.7955 26.2501 24.3755 26.6701 24.3755 27.1876V44.0626C24.3755 44.5801 24.7955 45.0001 25.313 45.0001H30.938C31.4555 45.0001 31.8755 44.5801 31.8755 44.0626V27.1876C31.8755 26.67 31.4555 26.2501 30.938 26.2501ZM30.0005 43.1251H26.2505V28.125H30.0005V43.1251Z" fill="#3DBEE3"/>
<path d="M42.188 15.0001H36.563C36.0455 15.0001 35.6255 15.4201 35.6255 15.9376V44.0626C35.6255 44.5801 36.0455 45.0001 36.563 45.0001H42.188C42.7055 45.0001 43.1255 44.5801 43.1255 44.0626V15.9376C43.1255 15.42 42.7055 15.0001 42.188 15.0001ZM41.2505 43.1251H37.5005V16.875H41.2505V43.1251Z" fill="#3DBEE3"/>
<path d="M5.62552 16.875C3.55736 16.875 1.87549 18.5569 1.87549 20.625C1.87549 22.6932 3.55736 24.3751 5.62552 24.3751C7.69367 24.3751 9.37555 22.6932 9.37555 20.625C9.37555 18.5569 7.69367 16.875 5.62552 16.875ZM5.62552 22.5C4.59052 22.5 3.75055 21.6581 3.75055 20.625C3.75055 19.5919 4.59052 18.7501 5.62552 18.7501C6.66052 18.7501 7.50049 19.592 7.50049 20.625C7.50049 21.6581 6.66052 22.5 5.62552 22.5Z" fill="#3DBEE3"/>
<path d="M16.8755 7.49994C14.8074 7.49994 13.1255 9.18181 13.1255 11.25C13.1255 13.3181 14.8074 15 16.8755 15C18.9437 15 20.6255 13.3181 20.6255 11.25C20.6255 9.18181 18.9437 7.49994 16.8755 7.49994ZM16.8755 13.1249C15.8405 13.1249 15.0005 12.283 15.0005 11.25C15.0005 10.2168 15.8405 9.375 16.8755 9.375C17.9105 9.375 18.7505 10.2169 18.7505 11.25C18.7505 12.2831 17.9105 13.1249 16.8755 13.1249Z" fill="#3DBEE3"/>
<path d="M28.1255 11.25C26.0574 11.25 24.3755 12.9319 24.3755 15C24.3755 17.0682 26.0574 18.7501 28.1255 18.7501C30.1937 18.7501 31.8755 17.0682 31.8755 15C31.8755 12.9319 30.1937 11.25 28.1255 11.25ZM28.1255 16.875C27.0905 16.875 26.2505 16.0331 26.2505 15C26.2505 13.9669 27.0905 13.1251 28.1255 13.1251C29.1605 13.1251 30.0005 13.967 30.0005 15C30.0005 16.0331 29.1605 16.875 28.1255 16.875Z" fill="#3DBEE3"/>
<path d="M39.3755 0C37.3074 0 35.6255 1.68188 35.6255 3.75003C35.6255 5.81818 37.3074 7.50006 39.3755 7.50006C41.4437 7.50006 43.1255 5.81818 43.1255 3.75003C43.1255 1.68188 41.4437 0 39.3755 0ZM39.3755 5.625C38.3405 5.625 37.5005 4.7831 37.5005 3.75003C37.5005 2.71688 38.3405 1.87506 39.3755 1.87506C40.4105 1.87506 41.2505 2.71696 41.2505 3.75003C41.2505 4.7831 40.4105 5.625 39.3755 5.625Z" fill="#3DBEE3"/>
<path d="M38.0501 5.07378C37.6845 4.70815 37.0901 4.70815 36.7245 5.07378L29.4495 12.3487C29.0839 12.7144 29.0839 13.3088 29.4495 13.6744C29.6333 13.8562 29.8732 13.9482 30.1133 13.9482C30.3514 13.9482 30.5914 13.8582 30.7752 13.6744L38.0501 6.39943C38.4158 6.03381 38.4158 5.4394 38.0501 5.07378Z" fill="#3DBEE3"/>
<path d="M25.8572 12.8362L19.8346 11.1188C19.3302 10.9725 18.8184 11.265 18.6777 11.7638C18.5353 12.2626 18.824 12.7801 19.3208 12.9226L25.3434 14.64C25.4296 14.6644 25.5159 14.6756 25.6003 14.6756C26.009 14.6756 26.384 14.4075 26.5021 13.995C26.6447 13.4981 26.3559 12.9787 25.8572 12.8362Z" fill="#3DBEE3"/>
<path d="M15.4131 12.4181C15.0907 12.0131 14.5019 11.9474 14.0969 12.268L7.02809 17.9043C6.62309 18.2287 6.55559 18.8174 6.87999 19.2224C7.06562 19.4548 7.3394 19.5749 7.61309 19.5749C7.81743 19.5749 8.02371 19.5074 8.19624 19.3724L15.265 13.7362C15.67 13.4117 15.7375 12.8231 15.4131 12.4181Z" fill="#3DBEE3"/>
</g>
<defs>
<clipPath id="clipl1">
<rect width="45" height="45" fill="white"/>
</clipPath>
</defs>
</svg>
