<svg width="50" height="50" viewBox="0 0 50 50" fill="none" xmlns="http://www.w3.org/2000/svg">
<path d="M29.4604 19.0887C28.9245 19.0887 28.4899 19.5233 28.4899 20.0592V20.073C28.4899 20.6089 28.9244 21.0434 29.4604 21.0434C29.9962 21.0434 30.4308 20.6089 30.4308 20.073V20.0592C30.4308 19.5232 29.9963 19.0887 29.4604 19.0887Z" fill="#3DBEE3"/>
<path d="M35.0567 23.365V15.3996C35.0567 15.0918 34.9107 14.8023 34.6633 14.6193C34.4159 14.4364 34.0963 14.3814 33.8021 14.4717L12.0379 21.1369H6.48359C2.90859 21.1369 0 24.0453 0 27.6204C0 31.003 2.6043 33.7872 5.91289 34.0773L8.04893 44.3182C8.4 46.0016 9.90303 47.2235 11.6227 47.2235C12.7266 47.2235 13.7591 46.7322 14.4554 45.8756C15.1517 45.019 15.4218 43.9081 15.1963 42.8273L14.7282 40.5835C16.7753 39.9517 18.3262 38.2519 18.7774 36.1678L33.8019 40.7689C33.895 40.7974 33.9907 40.8114 34.0859 40.8114C34.2913 40.8114 34.494 40.7461 34.6631 40.6211C34.9105 40.4381 35.0565 40.1486 35.0565 39.8409V31.8754C36.998 31.4329 38.4517 29.6937 38.4517 27.6202C38.4517 25.5468 36.998 23.8077 35.0567 23.365ZM6.48359 32.1627C3.97871 32.1627 1.94092 30.125 1.94092 27.6203C1.94092 25.1154 3.97881 23.0777 6.48359 23.0777H11.2126V32.1628H6.70732H6.48359V32.1627ZM12.9495 44.6513C12.6234 45.0525 12.1397 45.2826 11.6228 45.2826C10.8174 45.2826 10.1135 44.7104 9.94902 43.9219L7.90107 34.1037H11.3942L12.6342 40.0483C12.6344 40.049 12.6345 40.0498 12.6347 40.0504L13.2965 43.2236C13.4021 43.7297 13.2756 44.2501 12.9495 44.6513ZM14.3296 38.6711L13.4683 34.5417L16.9126 35.5965C16.6668 37.0118 15.6722 38.1878 14.3296 38.6711ZM33.1158 38.5288L30.4311 37.7066V23.9507C30.4311 23.4149 29.9965 22.9802 29.4606 22.9802C28.9248 22.9802 28.4902 23.4148 28.4902 23.9507V37.1123L18.3756 34.0147C18.2814 33.9676 18.1787 33.9354 18.0702 33.9211L13.1537 32.4155V22.825L33.1159 16.7118V38.5288H33.1158ZM35.0566 29.8414V25.3992C35.9117 25.7742 36.5106 26.6284 36.5106 27.6203C36.5106 28.6122 35.9117 29.4664 35.0566 29.8414Z" fill="#3DBEE3"/>
<path d="M45.5856 26.6498H41.2573C40.7214 26.6498 40.2867 27.0843 40.2867 27.6203C40.2867 28.1561 40.7213 28.5907 41.2573 28.5907H45.5856C46.1214 28.5907 46.556 28.1561 46.556 27.6203C46.556 27.0843 46.1214 26.6498 45.5856 26.6498Z" fill="#3DBEE3"/>
<path d="M42.8165 19.1634C42.5007 18.7303 41.8934 18.6355 41.4606 18.9513L39.2826 20.5399C38.8496 20.8557 38.7545 21.4628 39.0704 21.8958C39.2603 22.1564 39.5557 22.2944 39.8551 22.2944C40.0535 22.2944 40.2537 22.2338 40.4262 22.1079L42.6042 20.5193C43.0374 20.2035 43.1324 19.5964 42.8165 19.1634Z" fill="#3DBEE3"/>
<path d="M42.6043 34.7213L40.4395 33.1424C40.0066 32.8266 39.3994 32.9215 39.0836 33.3546C38.7677 33.7876 38.8628 34.3947 39.2958 34.7105L41.4605 36.2893C41.6331 36.4152 41.8332 36.4759 42.0316 36.4759C42.3311 36.4759 42.6266 36.3376 42.8164 36.0772C43.1324 35.6441 43.0373 35.037 42.6043 34.7213Z" fill="#3DBEE3"/>
<path d="M44.2147 6.2702H24.0714C23.5355 6.2702 23.101 6.70477 23.101 7.24061C23.101 7.77645 23.5355 8.21102 24.0714 8.21102H44.2147C44.7506 8.21102 45.1852 7.77645 45.1852 7.24061C45.1852 6.70477 44.7507 6.2702 44.2147 6.2702Z" fill="#3DBEE3"/>
<path d="M14.2322 6.55458C14.0516 6.37411 13.8014 6.2702 13.5461 6.2702C13.2908 6.2702 13.0405 6.37391 12.86 6.55458C12.6786 6.73505 12.5756 6.98544 12.5756 7.24071C12.5756 7.49598 12.6785 7.74628 12.86 7.92675C13.0404 8.10721 13.2908 8.21122 13.5461 8.21122C13.8014 8.21122 14.0516 8.10741 14.2322 7.92675C14.4127 7.74637 14.5166 7.49598 14.5166 7.24071C14.5166 6.98544 14.4128 6.73505 14.2322 6.55458Z" fill="#3DBEE3"/>
<path d="M10.6654 6.55458C10.4849 6.37411 10.2347 6.2702 9.9793 6.2702C9.72402 6.2702 9.47373 6.37391 9.29326 6.55458C9.11279 6.73505 9.00879 6.98544 9.00879 7.24071C9.00879 7.49598 9.1126 7.74628 9.29326 7.92675C9.47363 8.10721 9.72402 8.21122 9.9793 8.21122C10.2347 8.21122 10.4849 8.10741 10.6654 7.92675C10.8459 7.74637 10.9498 7.49598 10.9498 7.24071C10.9498 6.98544 10.846 6.73505 10.6654 6.55458Z" fill="#3DBEE3"/>
<path d="M17.7989 6.55458C17.6174 6.37401 17.3681 6.2702 17.1127 6.2702C16.8566 6.2702 16.6072 6.37391 16.4257 6.55458C16.2452 6.73505 16.1422 6.98544 16.1422 7.24071C16.1422 7.49598 16.2451 7.74628 16.4257 7.92675C16.6071 8.10721 16.8565 8.21122 17.1127 8.21122C17.3681 8.21122 17.6173 8.10741 17.7989 7.92675C17.9793 7.74637 18.0832 7.49598 18.0832 7.24071C18.0832 6.98544 17.9794 6.73505 17.7989 6.55458Z" fill="#3DBEE3"/>
<path d="M45.9233 2.77667H8.26961C6.02214 2.77667 4.19373 4.60509 4.19373 6.85255V20.1478C4.19373 20.6836 4.6283 21.1182 5.16414 21.1182C5.69998 21.1182 6.13455 20.6836 6.13455 20.1478V16.37H12.1822C12.718 16.37 13.1527 15.9355 13.1527 15.3996C13.1527 14.8638 12.7181 14.4291 12.1822 14.4291H6.13464V11.7042C6.13826 11.7042 6.14177 11.7048 6.14519 11.7048H48.0583V36.9366C48.0583 38.1139 47.1006 39.0716 45.9233 39.0716H38.192C37.6561 39.0716 37.2215 39.5062 37.2215 40.0421C37.2215 40.578 37.656 41.0125 38.192 41.0125H45.9233C48.1708 41.0125 49.9992 39.1841 49.9992 36.9366V6.85255C49.9992 4.60509 48.1708 2.77667 45.9233 2.77667ZM48.0583 9.76398H6.14519C6.14158 9.76398 6.13806 9.76447 6.13464 9.76456V6.85255C6.13464 5.67531 7.09236 4.71759 8.26961 4.71759H45.9233C47.1006 4.71759 48.0583 5.67531 48.0583 6.85255V9.76398Z" fill="#3DBEE3"/>
<path d="M16.0159 14.7132C15.8355 14.5327 15.5852 14.4287 15.3299 14.4287C15.0746 14.4287 14.8243 14.5325 14.6437 14.7132C14.4633 14.8936 14.3594 15.1439 14.3594 15.3992C14.3594 15.6546 14.4631 15.9049 14.6437 16.0854C14.8242 16.2668 15.0746 16.3697 15.3299 16.3697C15.5852 16.3697 15.8354 16.267 16.0159 16.0854C16.1964 15.905 16.3004 15.6546 16.3004 15.3992C16.3004 15.1439 16.1965 14.8936 16.0159 14.7132Z" fill="#3DBEE3"/>
</svg>
